<?xml version="1.0" encoding="UTF-8" standalone="no"?><svg xmlns="http://www.w3.org/2000/svg" xmlns:xlink="http://www.w3.org/1999/xlink" contentStyleType="text/css" height="855px" preserveAspectRatio="none" style="width:923px;height:855px;background:#FFFFFF;" version="1.1" viewBox="0 0 923 855" width="923px" zoomAndPan="magnify"><defs/><g><!--MD5=[e297f64b7d5c63063320c682806a6d69]
cluster android-views--><g id="cluster_android-views"><path d="M177.5,12.1191 L356.5,12.1191 A3.75,3.75 0 0 1 359,14.6191 L366,44.8564 L541.5,44.8564 A2.5,2.5 0 0 1 544,47.3564 L544,242.1191 A2.5,2.5 0 0 1 541.5,244.6191 L177.5,244.6191 A2.5,2.5 0 0 1 175,242.1191 L175,14.6191 A2.5,2.5 0 0 1 177.5,12.1191 " fill="#FFFFFF" style="stroke:#000000;stroke-width:1.0;"/><line style="stroke:#000000;stroke-width:1.0;" x1="175" x2="366" y1="44.8564" y2="44.8564"/><text fill="#000000" font-family="Verdana" font-size="22" font-weight="bold" lengthAdjust="spacing" textLength="178" x="179" y="36.2373">android-views</text></g><!--MD5=[f4e70ef68289585296b9045165e58692]
cluster controllers--><g id="cluster_controllers"><path d="M351.5,293.6191 L487.5,293.6191 A3.75,3.75 0 0 1 490,296.1191 L497,326.3564 L877.5,326.3564 A2.5,2.5 0 0 1 880,328.8564 L880,406.1191 A2.5,2.5 0 0 1 877.5,408.6191 L351.5,408.6191 A2.5,2.5 0 0 1 349,406.1191 L349,296.1191 A2.5,2.5 0 0 1 351.5,293.6191 " fill="#FFFFFF" style="stroke:#000000;stroke-width:1.0;"/><line style="stroke:#000000;stroke-width:1.0;" x1="349" x2="497" y1="326.3564" y2="326.3564"/><text fill="#000000" font-family="Verdana" font-size="22" font-weight="bold" lengthAdjust="spacing" textLength="135" x="353" y="317.7373">controllers</text><text fill="#000000" font-family="Verdana" font-size="14" font-style="italic" lengthAdjust="spacing" textLength="238" x="499.5" y="342.4316">«master-mind-core dependency»</text></g><!--MD5=[a60570e4b426f702ccbb0d459e3b9417]
cluster models--><g id="cluster_models"><path d="M473.5,489.6191 L563.5,489.6191 A3.75,3.75 0 0 1 566,492.1191 L573,522.3564 L913.5,522.3564 A2.5,2.5 0 0 1 916,524.8564 L916,846.1191 A2.5,2.5 0 0 1 913.5,848.6191 L473.5,848.6191 A2.5,2.5 0 0 1 471,846.1191 L471,492.1191 A2.5,2.5 0 0 1 473.5,489.6191 " fill="#FFFFFF" style="stroke:#000000;stroke-width:1.0;"/><line style="stroke:#000000;stroke-width:1.0;" x1="471" x2="573" y1="522.3564" y2="522.3564"/><text fill="#000000" font-family="Verdana" font-size="22" font-weight="bold" lengthAdjust="spacing" textLength="89" x="475" y="513.7373">models</text><text fill="#000000" font-family="Verdana" font-size="14" font-style="italic" lengthAdjust="spacing" textLength="238" x="578.5" y="538.4316">«master-mind-core dependency»</text></g><!--MD5=[e3778cc44fa884be4a792c4b2ec29700]
entity playView--><g id="elem_playView"><rect fill="#FFFFFF" height="37.0146" rx="2.5" ry="2.5" style="stroke:#000000;stroke-width:1.0;" width="80" x="191" y="57.1191"/><text fill="#000000" font-family="Verdana" font-size="14" lengthAdjust="spacing" textLength="60" x="201" y="81.1943">playView</text></g><!--MD5=[6ec64ccabbe573002792a401221fa1bf]
entity proposedCombinationView--><g id="elem_proposedCombinationView"><rect fill="#FFFFFF" height="37.0146" rx="2.5" ry="2.5" style="stroke:#000000;stroke-width:1.0;" width="207" x="320.5" y="191.6191"/><text fill="#000000" font-family="Verdana" font-size="14" lengthAdjust="spacing" textLength="187" x="330.5" y="215.6943">proposedCombinationView</text></g><!--MD5=[10824c59c4733b2c1718b323d73d4686]
entity colorPicker--><g id="elem_colorPicker"><rect fill="#FFFFFF" height="37.0146" rx="2.5" ry="2.5" style="stroke:#000000;stroke-width:1.0;" width="94" x="191" y="191.6191"/><text fill="#000000" font-family="Verdana" font-size="14" lengthAdjust="spacing" textLength="74" x="201" y="215.6943">colorPicker</text></g><!--MD5=[d337f96615cab52110883aeb363eb09b]
entity boardView--><g id="elem_boardView"><rect fill="#FFFFFF" height="37.0146" rx="2.5" ry="2.5" style="stroke:#000000;stroke-width:1.0;" width="93" x="408.5" y="57.1191"/><text fill="#000000" font-family="Verdana" font-size="14" lengthAdjust="spacing" textLength="73" x="418.5" y="81.1943">boardView</text></g><!--MD5=[05a9baef6bd043058c3bbdd85940c391]
entity playController--><g id="elem_playController"><rect fill="#FFFFFF" height="37.0146" rx="2.5" ry="2.5" style="stroke:#000000;stroke-width:1.0;" width="117" x="365.5" y="355.6191"/><text fill="#000000" font-family="Verdana" font-size="14" lengthAdjust="spacing" textLength="97" x="375.5" y="379.6943">playController</text></g><!--MD5=[3b15c3baf64762de6beae41fd3945220]
entity proposedCombinationController--><g id="elem_proposedCombinationController"><rect fill="#FFFFFF" height="37.0146" rx="2.5" ry="2.5" style="stroke:#000000;stroke-width:1.0;" width="244" x="620" y="355.6191"/><text fill="#000000" font-family="Verdana" font-size="14" lengthAdjust="spacing" textLength="224" x="630" y="379.6943">proposedCombinationController</text></g><!--MD5=[3cc8c711f13e618a9f246baa7cb77485]
entity session--><g id="elem_session"><rect fill="#FFFFFF" height="37.0146" rx="2.5" ry="2.5" style="stroke:#000000;stroke-width:1.0;" width="73" x="705.5" y="551.6191"/><text fill="#000000" font-family="Verdana" font-size="14" lengthAdjust="spacing" textLength="53" x="715.5" y="575.6943">session</text></g><!--MD5=[aff0e67a1692f4b0d96c087fa0872bfd]
entity registry--><g id="elem_registry"><rect fill="#FFFFFF" height="37.0146" rx="2.5" ry="2.5" style="stroke:#000000;stroke-width:1.0;" width="74" x="812" y="681.6191"/><text fill="#000000" font-family="Verdana" font-size="14" lengthAdjust="spacing" textLength="54" x="822" y="705.6943">registry</text></g><!--MD5=[60f39db9307333e30ad09f57b45aa936]
entity game--><g id="elem_game"><rect fill="#FFFFFF" height="37.0146" rx="2.5" ry="2.5" style="stroke:#000000;stroke-width:1.0;" width="58" x="719" y="681.6191"/><text fill="#000000" font-family="Verdana" font-size="14" lengthAdjust="spacing" textLength="38" x="729" y="705.6943">game</text></g><!--MD5=[583c48422b376adff395f8a0cf4a0e4d]
entity proposedCombination--><g id="elem_proposedCombination"><rect fill="#FFFFFF" height="37.0146" rx="2.5" ry="2.5" style="stroke:#000000;stroke-width:1.0;" width="175" x="724.5" y="795.6191"/><text fill="#000000" font-family="Verdana" font-size="14" lengthAdjust="spacing" textLength="155" x="734.5" y="819.6943">proposedCombination</text></g><!--MD5=[3b98d72c30b49c62d3a6252bb2f730f0]
entity combination--><g id="elem_combination"><rect fill="#FFFFFF" height="37.0146" rx="2.5" ry="2.5" style="stroke:#000000;stroke-width:1.0;" width="105" x="584.5" y="795.6191"/><text fill="#000000" font-family="Verdana" font-size="14" lengthAdjust="spacing" textLength="85" x="594.5" y="819.6943">combination</text></g><!--MD5=[429d483b989edb763d39b7fb4c95d2bb]
entity colors--><g id="elem_colors"><rect fill="#FFFFFF" height="37.0146" rx="2.5" ry="2.5" style="stroke:#000000;stroke-width:1.0;" width="62" x="487" y="795.6191"/><text fill="#000000" font-family="Verdana" font-size="14" lengthAdjust="spacing" textLength="42" x="497" y="819.6943">colors</text></g><!--MD5=[d8eca564858595245321772129d300af]
entity player--><g id="elem_player"><ellipse cx="32" cy="45.6191" fill="#FFFFFF" rx="8" ry="8" style="stroke:#000000;stroke-width:1.0;"/><path d="M32,53.6191 L32,80.6191 M19,61.6191 L45,61.6191 M32,80.6191 L19,95.6191 M32,80.6191 L45,95.6191 " fill="none" style="stroke:#000000;stroke-width:1.0;"/><text fill="#000000" font-family="Verdana" font-size="14" lengthAdjust="spacing" textLength="42" x="11" y="111.6943">player</text></g><!--MD5=[c394c5d78a1648f35d7f92adf4f0e142]
link player to playView--><g id="link_player_playView"><path d="M53.3,75.6191 C84.64,75.6191 143.96,75.6191 185.41,75.6191 " fill="none" id="player-to-playView" style="stroke:#000000;stroke-width:1.0;"/><polygon fill="#000000" points="190.62,75.6191,181.62,71.6191,185.62,75.6191,181.62,79.6191,190.62,75.6191" style="stroke:#000000;stroke-width:1.0;"/><text fill="#000000" font-family="Verdana" font-size="13" lengthAdjust="spacing" textLength="101" x="71.5" y="69.689">addPropComb()</text></g><!--MD5=[50b660695bc93a473a666aac34cb65bb]
link playView to boardView--><g id="link_playView_boardView"><path d="M271.05,75.6191 C307.9,75.6191 362.78,75.6191 403,75.6191 " fill="none" id="playView-to-boardView" style="stroke:#000000;stroke-width:1.0;"/><polygon fill="#000000" points="408.33,75.6191,399.33,71.6191,403.33,75.6191,399.33,79.6191,408.33,75.6191" style="stroke:#000000;stroke-width:1.0;"/><text fill="#000000" font-family="Verdana" font-size="13" lengthAdjust="spacing" textLength="101" x="289.25" y="69.689">addPropComb()</text></g><!--MD5=[a59ea8954fa22fbb4e210e7eaf85aeb6]
link boardView to proposedCombinationView--><g id="link_boardView_proposedCombinationView"><path d="M450.88,94.2091 C445.32,117.9691 435.41,160.3391 429.3,186.4591 " fill="none" id="boardView-to-proposedCombinationView" style="stroke:#000000;stroke-width:1.0;"/><polygon fill="#000000" points="428.13,191.4491,434.058,183.5841,429.2585,186.5781,426.2645,181.7786,428.13,191.4491" style="stroke:#000000;stroke-width:1.0;"/><text fill="#000000" font-family="Verdana" font-size="13" lengthAdjust="spacing" textLength="101" x="439" y="158.689">addPropComb()</text></g><!--MD5=[57762eb7760f277e1c71e8e5e88cb277]
link proposedCombinationView to playController--><g id="link_proposedCombinationView_playController"><path d="M424,228.7691 C424,258.2191 424,317.3991 424,350.0991 " fill="none" id="proposedCombinationView-to-playController" style="stroke:#000000;stroke-width:1.0;"/><polygon fill="#000000" points="424,355.4991,428,346.4991,424,350.4991,420,346.4991,424,355.4991" style="stroke:#000000;stroke-width:1.0;"/><text fill="#000000" font-family="Verdana" font-size="13" lengthAdjust="spacing" textLength="101" x="425" y="274.689">addPropComb()</text></g><!--MD5=[8205cfdd2d002f7b1ff2748785a0145a]
reverse link colorPicker to proposedCombinationView--><g id="link_colorPicker_proposedCombinationView"><path d="M290.46,210.1191 C300.46,210.1191 310.46,210.1191 320.46,210.1191 " fill="none" id="colorPicker-backto-proposedCombinationView" style="stroke:#000000;stroke-width:1.0;stroke-dasharray:7.0,7.0;"/><polygon fill="#000000" points="285.23,210.1191,294.23,214.1191,290.23,210.1191,294.23,206.1191,285.23,210.1191" style="stroke:#000000;stroke-width:1.0;"/></g><!--MD5=[3cc6c9eb5790289b64d7978a50699d6f]
link playController to proposedCombinationController--><g id="link_playController_proposedCombinationController"><path d="M482.7,374.1191 C519.68,374.1191 568.89,374.1191 614.5,374.1191 " fill="none" id="playController-to-proposedCombinationController" style="stroke:#000000;stroke-width:1.0;"/><polygon fill="#000000" points="619.76,374.1191,610.76,370.1191,614.76,374.1191,610.76,378.1191,619.76,374.1191" style="stroke:#000000;stroke-width:1.0;"/><text fill="#000000" font-family="Verdana" font-size="13" lengthAdjust="spacing" textLength="101" x="500.75" y="368.189">addPropComb()</text></g><!--MD5=[235b4adf7e6ab0a867d0f8b5c1bc9674]
link proposedCombinationController to session--><g id="link_proposedCombinationController_session"><path d="M742,392.6791 C742,427.9391 742,507.3191 742,546.4391 " fill="none" id="proposedCombinationController-to-session" style="stroke:#000000;stroke-width:1.0;"/><polygon fill="#000000" points="742,551.4591,746,542.4591,742,546.4591,738,542.4591,742,551.4591" style="stroke:#000000;stroke-width:1.0;"/><text fill="#000000" font-family="Verdana" font-size="13" lengthAdjust="spacing" textLength="101" x="743" y="438.689">addPropComb()</text><text fill="#000000" font-family="Verdana" font-size="13" lengthAdjust="spacing" textLength="83" x="752" y="454.4883">nextAttempt</text><text fill="#000000" font-family="Verdana" font-size="13" lengthAdjust="spacing" textLength="49" x="769" y="470.2876">regist()</text></g><!--MD5=[751b61c69a1b342c470f63ee712c1c84]
link session to game--><g id="link_session_game"><path d="M722.27,589.0591 C714.71,597.2491 706.96,607.5691 703,618.6191 C698.06,632.4291 697.57,637.9991 703,651.6191 C706.9,661.4091 713.89,670.3491 721.21,677.7591 " fill="none" id="session-to-game" style="stroke:#000000;stroke-width:1.0;"/><polygon fill="#000000" points="724.82,681.2791,721.1548,672.1377,721.2348,677.794,715.5785,677.8739,724.82,681.2791" style="stroke:#000000;stroke-width:1.0;"/><text fill="#000000" font-family="Verdana" font-size="13" lengthAdjust="spacing" textLength="101" x="704" y="632.689">addPropComb()</text><text fill="#000000" font-family="Verdana" font-size="13" lengthAdjust="spacing" textLength="83" x="713" y="648.4883">nextAttempt</text></g><!--MD5=[dbdecfaa6cb1599a8aec4d82bde6daa1]
link session to registry--><g id="link_session_registry"><path d="M774.13,588.7491 C786.48,596.6691 800,606.8991 810,618.6191 C824.52,635.6491 835.05,659.0091 841.48,676.1791 " fill="none" id="session-to-registry" style="stroke:#000000;stroke-width:1.0;"/><polygon fill="#000000" points="843.35,681.2991,844.0239,671.4734,841.6367,676.6018,836.5082,674.2146,843.35,681.2991" style="stroke:#000000;stroke-width:1.0;"/><text fill="#000000" font-family="Verdana" font-size="13" lengthAdjust="spacing" textLength="49" x="831" y="640.689">regist()</text></g><!--MD5=[efc360da957eeea4d29a12abad6526e9]
reverse link game to registry--><g id="link_game_registry"><path d="M782.36,700.1191 C792.23,700.1191 802.1,700.1191 811.98,700.1191 " fill="none" id="game-backto-registry" style="stroke:#000000;stroke-width:1.0;stroke-dasharray:7.0,7.0;"/><polygon fill="#000000" points="777.2,700.1191,786.2,704.1191,782.2,700.1191,786.2,696.1191,777.2,700.1191" style="stroke:#000000;stroke-width:1.0;"/></g><!--MD5=[d962e907b3d13f6a8bb2754c27349212]
link game to proposedCombination--><g id="link_game_proposedCombination"><path d="M758.28,719.1091 C769.45,738.6591 787.3,769.8991 799.33,790.9491 " fill="none" id="game-to-proposedCombination" style="stroke:#000000;stroke-width:1.0;"/><polygon fill="#000000" points="801.95,795.5391,800.9508,785.7411,799.4662,791.1997,794.0077,789.7151,801.95,795.5391" style="stroke:#000000;stroke-width:1.0;"/><text fill="#000000" font-family="Verdana" font-size="13" lengthAdjust="spacing" textLength="36" x="784" y="762.689">add()</text></g><!--MD5=[80ba6438252ec84ba23787d368e0496c]
reverse link combination to proposedCombination--><g id="link_combination_proposedCombination"><path d="M694.75,814.1191 C704.51,814.1191 714.28,814.1191 724.05,814.1191 " fill="none" id="combination-backto-proposedCombination" style="stroke:#000000;stroke-width:1.0;stroke-dasharray:7.0,7.0;"/><polygon fill="#000000" points="689.64,814.1191,698.64,818.1191,694.64,814.1191,698.64,810.1191,689.64,814.1191" style="stroke:#000000;stroke-width:1.0;"/></g><!--MD5=[1256a04e72427607f125ef015a7a7c80]
reverse link colors to combination--><g id="link_colors_combination"><path d="M554.39,814.1191 C564.43,814.1191 574.46,814.1191 584.49,814.1191 " fill="none" id="colors-backto-combination" style="stroke:#000000;stroke-width:1.0;stroke-dasharray:7.0,7.0;"/><polygon fill="#000000" points="549.14,814.1191,558.14,818.1191,554.14,814.1191,558.14,810.1191,549.14,814.1191" style="stroke:#000000;stroke-width:1.0;"/></g><!--MD5=[554193a8e875ea16f3210b052008b0c2]
@startuml colaboration-propose-combination
!theme plain

actor player

package android-views{
    agent playView
    agent proposedCombinationView
    agent colorPicker
    agent boardView
}
package controllers <<master-mind-core dependency>> {
    agent playController
    agent proposedCombinationController
}
package models <<master-mind-core dependency>> {
    agent session
    agent registry
    agent game
    agent proposedCombination
    agent combination
    agent colors
}

player -right-> playView :addPropComb()
playView -right-> boardView :addPropComb()
boardView  - -> proposedCombinationView :addPropComb()
proposedCombinationView - -> playController :addPropComb()
proposedCombinationView .left.> colorPicker


playController -right-> proposedCombinationController :addPropComb()
proposedCombinationController -down-> session :addPropComb()\nnextAttempt\nregist()
session -down-> game :addPropComb()\nnextAttempt
session -down-> registry :regist()
registry .left.> game
game -down-> proposedCombination :add()
proposedCombination .left.> combination
combination .left.> colors

@enduml

@startuml colaboration-propose-combination







<style>
  root {
    BackgroundColor white
    FontColor black
    FontName Verdana
    HyperLinkColor blue
    LineColor black
    LineThickness 1
    Margin 5
  }
  caption {
    LineThickness 0
  }
  footer {
    LineThickness 0
  }
  header {
    LineThickness 0
  }
  node {
    MaximumWidth 300
  }
  title {
    FontSize 22
    LineThickness 0
  }
</style>

skinparam ArrowLollipopColor black
skinparam BackgroundColor white
skinparam DefaultFontName Verdana
skinparam DefaultMonospacedFontName Courier
skinparam LifelineStrategy nosolid
skinparam ParticipantPadding 10
skinparam SequenceLifeLineBorderColor black
skinparam Shadowing false
skinparam UseBetaStyle true

skinparam Activity {
  BackgroundColor white
  BarColor black
  BorderColor black
  FontColor black
  FontName Verdana
}
skinparam Boundary {
  FontColor black
}
skinparam Box {
  Padding 5
}
skinparam CircledCharacter {
  FontColor black
  FontName Courier
  Radius 9
}
skinparam Class {
  BackgroundColor white
  BorderColor black
  FontColor black
  FontName Verdana
}
skinparam ClassAttribute {
  FontColor black
  FontName Verdana
}
skinparam ClassStereotype {
  FontColor black
  FontName Verdana
}
skinparam Footer {
  FontColor black
  FontName Verdana
}
skinparam Header {
  FontColor black
  FontName Verdana
}
skinparam Hyperlink {
  Color blue
}
skinparam IconPackage {
  Color black
  BackgroundColor white
}
skinparam IconPrivate {
  Color black
  BackgroundColor white
}
skinparam IconProtected {
  Color black
  BackgroundColor white
}
skinparam IconPublic {
  Color black
  BackgroundColor white
}
skinparam Note {
  FontColor black
  FontName Verdana
}
skinparam Object {
  BorderColor black
}
skinparam Package {
  BorderColor black
  FontColor black
  FontName Verdana
}
skinparam State {
  BackgroundColor white
  BorderColor black
}
skinparam StereotypeA {
  BackgroundColor white
  BorderColor black
}
skinparam StereotypeC {
  BackgroundColor white
  BorderColor black
}
skinparam StereotypeE {
  BackgroundColor white
  BorderColor black
}
skinparam StereotypeI {
  BackgroundColor white
  BorderColor black
}
skinparam StereotypeN {
  BackgroundColor white
  BorderColor black
}
skinparam UseCaseStereoType {
  FontColor black
  FontName Verdana
}

actor player

package android-views{
    agent playView
    agent proposedCombinationView
    agent colorPicker
    agent boardView
}
package controllers <<master-mind-core dependency>> {
    agent playController
    agent proposedCombinationController
}
package models <<master-mind-core dependency>> {
    agent session
    agent registry
    agent game
    agent proposedCombination
    agent combination
    agent colors
}

player -right-> playView :addPropComb()
playView -right-> boardView :addPropComb()
boardView  - -> proposedCombinationView :addPropComb()
proposedCombinationView - -> playController :addPropComb()
proposedCombinationView .left.> colorPicker


playController -right-> proposedCombinationController :addPropComb()
proposedCombinationController -down-> session :addPropComb()\nnextAttempt\nregist()
session -down-> game :addPropComb()\nnextAttempt
session -down-> registry :regist()
registry .left.> game
game -down-> proposedCombination :add()
proposedCombination .left.> combination
combination .left.> colors

@enduml

PlantUML version 1.2022.7(Mon Aug 22 12:01:30 CDT 2022)
(GPL source distribution)
Java Runtime: Java(TM) SE Runtime Environment
JVM: Java HotSpot(TM) 64-Bit Server VM
Default Encoding: Cp1252
Language: es
Country: MX
--></g></svg>