<?xml version="1.0" encoding="UTF-8" standalone="no"?><svg xmlns="http://www.w3.org/2000/svg" xmlns:xlink="http://www.w3.org/1999/xlink" contentStyleType="text/css" height="834px" preserveAspectRatio="none" style="width:1013px;height:834px;background:#FFFFFF;" version="1.1" viewBox="0 0 1013 834" width="1013px" zoomAndPan="magnify"><defs/><g><!--MD5=[d36c75923fc9501e085215a0f1133f63]
cluster angular--><g id="cluster_angular"><path d="M213,21.1885 L311,21.1885 A3.75,3.75 0 0 1 313.5,23.6885 L320.5,52.7979 L746,52.7979 A2.5,2.5 0 0 1 748.5,55.2979 L748.5,248.1885 A2.5,2.5 0 0 1 746,250.6885 L213,250.6885 A2.5,2.5 0 0 1 210.5,248.1885 L210.5,23.6885 A2.5,2.5 0 0 1 213,21.1885 " fill="#FFFFFF" style="stroke:#000000;stroke-width:1.0;"/><line style="stroke:#000000;stroke-width:1.0;" x1="210.5" x2="320.5" y1="52.7979" y2="52.7979"/><text fill="#000000" font-family="Verdana" font-size="22" font-weight="bold" lengthAdjust="spacing" textLength="97" x="214.5" y="43.6094">angular</text></g><!--MD5=[f4e70ef68289585296b9045165e58692]
cluster controllers--><g id="cluster_controllers"><path d="M385,299.6885 L522,299.6885 A3.75,3.75 0 0 1 524.5,302.1885 L531.5,331.2979 L905,331.2979 A2.5,2.5 0 0 1 907.5,333.7979 L907.5,409.1885 A2.5,2.5 0 0 1 905,411.6885 L385,411.6885 A2.5,2.5 0 0 1 382.5,409.1885 L382.5,302.1885 A2.5,2.5 0 0 1 385,299.6885 " fill="#FFFFFF" style="stroke:#000000;stroke-width:1.0;"/><line style="stroke:#000000;stroke-width:1.0;" x1="382.5" x2="531.5" y1="331.2979" y2="331.2979"/><text fill="#000000" font-family="Verdana" font-size="22" font-weight="bold" lengthAdjust="spacing" textLength="136" x="386.5" y="322.1094">controllers</text><text fill="#000000" font-family="Verdana" font-size="14" font-style="italic" lengthAdjust="spacing" textLength="232" x="533" y="346.293">«master-mind-core dependency»</text></g><!--MD5=[a60570e4b426f702ccbb0d459e3b9417]
cluster models--><g id="cluster_models"><path d="M250,490.6885 L341,490.6885 A3.75,3.75 0 0 1 343.5,493.1885 L350.5,522.2979 L687,522.2979 A2.5,2.5 0 0 1 689.5,524.7979 L689.5,825.1885 A2.5,2.5 0 0 1 687,827.6885 L250,827.6885 A2.5,2.5 0 0 1 247.5,825.1885 L247.5,493.1885 A2.5,2.5 0 0 1 250,490.6885 " fill="#FFFFFF" style="stroke:#000000;stroke-width:1.0;"/><line style="stroke:#000000;stroke-width:1.0;" x1="247.5" x2="350.5" y1="522.2979" y2="522.2979"/><text fill="#000000" font-family="Verdana" font-size="22" font-weight="bold" lengthAdjust="spacing" textLength="90" x="251.5" y="513.1094">models</text><text fill="#000000" font-family="Verdana" font-size="14" font-style="italic" lengthAdjust="spacing" textLength="232" x="356.5" y="537.293">«master-mind-core dependency»</text></g><!--MD5=[7a06356ce7b0867e27ff31b460c620a1]
cluster spring-rest-views--><g id="cluster_spring-rest-views"><path d="M775,12.6885 L994,12.6885 A3.75,3.75 0 0 1 996.5,15.1885 L1003.5,44.2979 L1004,44.2979 A2.5,2.5 0 0 1 1006.5,46.7979 L1006.5,248.1885 A2.5,2.5 0 0 1 1004,250.6885 L775,250.6885 A2.5,2.5 0 0 1 772.5,248.1885 L772.5,15.1885 A2.5,2.5 0 0 1 775,12.6885 " fill="#FFFFFF" style="stroke:#000000;stroke-width:1.0;"/><line style="stroke:#000000;stroke-width:1.0;" x1="772.5" x2="1003.5" y1="44.2979" y2="44.2979"/><text fill="#000000" font-family="Verdana" font-size="22" font-weight="bold" lengthAdjust="spacing" textLength="218" x="776.5" y="35.1094">spring-rest-views</text></g><!--MD5=[49454117d5b041c3c009eea2cace09ee]
entity combinationPickerHTML--><g id="elem_combinationPickerHTML"><rect fill="#FFFFFF" height="36.2969" rx="2.5" ry="2.5" style="stroke:#000000;stroke-width:1.0;" width="185" x="226" y="65.1885"/><text fill="#000000" font-family="Verdana" font-size="14" lengthAdjust="spacing" textLength="165" x="236" y="88.1836">combinationPickerHTML</text></g><!--MD5=[c33ab62842e85f2a174d0f7f28bcd0f1]
entity combinationPicker--><g id="elem_combinationPicker"><rect fill="#FFFFFF" height="36.2969" rx="2.5" ry="2.5" style="stroke:#000000;stroke-width:1.0;" width="147" x="585" y="65.1885"/><text fill="#000000" font-family="Verdana" font-size="14" lengthAdjust="spacing" textLength="127" x="595" y="88.1836">combinationPicker</text></g><!--MD5=[89124479dd8c0841111d543da82ddb5c]
entity playService--><g id="elem_playService"><rect fill="#FFFFFF" height="36.2969" rx="2.5" ry="2.5" style="stroke:#000000;stroke-width:1.0;" width="97" x="374" y="198.6885"/><text fill="#000000" font-family="Verdana" font-size="14" lengthAdjust="spacing" textLength="77" x="384" y="221.6836">playService</text></g><!--MD5=[dd56e33f0238782510eb7f5893c5b221]
entity httpClient--><g id="elem_httpClient"><rect fill="#FFFFFF" height="36.2969" rx="2.5" ry="2.5" style="stroke:#000000;stroke-width:1.0;" width="87" x="645" y="198.6885"/><text fill="#000000" font-family="Verdana" font-size="14" lengthAdjust="spacing" textLength="67" x="655" y="221.6836">httpClient</text></g><!--MD5=[05a9baef6bd043058c3bbdd85940c391]
entity playController--><g id="elem_playController"><rect fill="#FFFFFF" height="36.2969" rx="2.5" ry="2.5" style="stroke:#000000;stroke-width:1.0;" width="114" x="777.5" y="359.6885"/><text fill="#000000" font-family="Verdana" font-size="14" lengthAdjust="spacing" textLength="94" x="787.5" y="382.6836">playController</text></g><!--MD5=[3b15c3baf64762de6beae41fd3945220]
entity proposedCombinationController--><g id="elem_proposedCombinationController"><rect fill="#FFFFFF" height="36.2969" rx="2.5" ry="2.5" style="stroke:#000000;stroke-width:1.0;" width="241" x="399" y="359.6885"/><text fill="#000000" font-family="Verdana" font-size="14" lengthAdjust="spacing" textLength="221" x="409" y="382.6836">proposedCombinationController</text></g><!--MD5=[3cc8c711f13e618a9f246baa7cb77485]
entity session--><g id="elem_session"><rect fill="#FFFFFF" height="36.2969" rx="2.5" ry="2.5" style="stroke:#000000;stroke-width:1.0;" width="74" x="482.5" y="550.6885"/><text fill="#000000" font-family="Verdana" font-size="14" lengthAdjust="spacing" textLength="54" x="492.5" y="573.6836">session</text></g><!--MD5=[aff0e67a1692f4b0d96c087fa0872bfd]
entity registry--><g id="elem_registry"><rect fill="#FFFFFF" height="36.2969" rx="2.5" ry="2.5" style="stroke:#000000;stroke-width:1.0;" width="71" x="602" y="678.6885"/><text fill="#000000" font-family="Verdana" font-size="14" lengthAdjust="spacing" textLength="51" x="612" y="701.6836">registry</text></g><!--MD5=[60f39db9307333e30ad09f57b45aa936]
entity game--><g id="elem_game"><rect fill="#FFFFFF" height="36.2969" rx="2.5" ry="2.5" style="stroke:#000000;stroke-width:1.0;" width="59" x="508" y="678.6885"/><text fill="#000000" font-family="Verdana" font-size="14" lengthAdjust="spacing" textLength="39" x="518" y="701.6836">game</text></g><!--MD5=[583c48422b376adff395f8a0cf4a0e4d]
entity proposedCombination--><g id="elem_proposedCombination"><rect fill="#FFFFFF" height="36.2969" rx="2.5" ry="2.5" style="stroke:#000000;stroke-width:1.0;" width="174" x="263.5" y="678.6885"/><text fill="#000000" font-family="Verdana" font-size="14" lengthAdjust="spacing" textLength="154" x="273.5" y="701.6836">proposedCombination</text></g><!--MD5=[3b98d72c30b49c62d3a6252bb2f730f0]
entity combination--><g id="elem_combination"><rect fill="#FFFFFF" height="36.2969" rx="2.5" ry="2.5" style="stroke:#000000;stroke-width:1.0;" width="105" x="298" y="775.6885"/><text fill="#000000" font-family="Verdana" font-size="14" lengthAdjust="spacing" textLength="85" x="308" y="798.6836">combination</text></g><!--MD5=[429d483b989edb763d39b7fb4c95d2bb]
entity colors--><g id="elem_colors"><rect fill="#FFFFFF" height="36.2969" rx="2.5" ry="2.5" style="stroke:#000000;stroke-width:1.0;" width="62" x="438.5" y="775.6885"/><text fill="#000000" font-family="Verdana" font-size="14" lengthAdjust="spacing" textLength="42" x="448.5" y="798.6836">colors</text></g><!--MD5=[10a9784edb74c25fbd672c29d319a76d]
entity restPlayView--><g id="elem_restPlayView"><rect fill="#FFFFFF" height="52.5938" rx="2.5" ry="2.5" style="stroke:#000000;stroke-width:1.0;" width="141" x="789" y="56.6885"/><text fill="#000000" font-family="Verdana" font-size="14" font-style="italic" lengthAdjust="spacing" textLength="121" x="799" y="79.6836">«@RestCotroller»</text><text fill="#000000" font-family="Verdana" font-size="14" lengthAdjust="spacing" textLength="86" x="816.5" y="95.9805">restPlayView</text></g><!--MD5=[6032990b5820eb5d94240eda9d677814]
entity boardDTO--><g id="elem_boardDTO"><rect fill="#FFFFFF" height="36.2969" rx="2.5" ry="2.5" style="stroke:#000000;stroke-width:1.0;" width="91" x="789" y="198.6885"/><text fill="#000000" font-family="Verdana" font-size="14" lengthAdjust="spacing" textLength="71" x="799" y="221.6836">boardDTO</text></g><!--MD5=[d8eca564858595245321772129d300af]
entity player--><g id="elem_player"><ellipse cx="31.5" cy="53.6885" fill="#FFFFFF" rx="8" ry="8" style="stroke:#000000;stroke-width:1.0;"/><path d="M31.5,61.6885 L31.5,88.6885 M18.5,69.6885 L44.5,69.6885 M31.5,88.6885 L18.5,103.6885 M31.5,88.6885 L44.5,103.6885 " fill="none" style="stroke:#000000;stroke-width:1.0;"/><text fill="#000000" font-family="Verdana" font-size="14" lengthAdjust="spacing" textLength="41" x="11" y="118.6836">player</text></g><!--MD5=[4b60ac1ee2b11ac66c854d983774e3de]
link player to combinationPickerHTML--><g id="link_player_combinationPickerHTML"><path d="M52.14,83.1885 C87.08,83.1885 160.01,83.1885 220.74,83.1885 " fill="none" id="player-to-combinationPickerHTML" style="stroke:#000000;stroke-width:1.0;"/><polygon fill="#000000" points="225.83,83.1885,216.83,79.1885,220.83,83.1885,216.83,87.1885,225.83,83.1885" style="stroke:#000000;stroke-width:1.0;"/><text fill="#000000" font-family="Verdana" font-size="13" lengthAdjust="spacing" textLength="137" x="70.5" y="76.2554">addPropComb(comb)</text></g><!--MD5=[71a3d941e9b3c433ae5e7449376675bc]
link combinationPickerHTML to combinationPicker--><g id="link_combinationPickerHTML_combinationPicker"><path d="M411.41,83.1885 C464.16,83.1885 529.47,83.1885 579.7,83.1885 " fill="none" id="combinationPickerHTML-to-combinationPicker" style="stroke:#000000;stroke-width:1.0;"/><polygon fill="#000000" points="584.82,83.1885,575.82,79.1885,579.82,83.1885,575.82,87.1885,584.82,83.1885" style="stroke:#000000;stroke-width:1.0;"/><text fill="#000000" font-family="Verdana" font-size="13" lengthAdjust="spacing" textLength="137" x="429.5" y="76.2554">addPropComb(comb)</text></g><!--MD5=[c01601146c56ff0caf94b9e28552787d]
link combinationPicker to playService--><g id="link_combinationPicker_playService"><path d="M627.65,101.3785 C583.92,125.7485 504.12,170.2085 457.99,195.9085 " fill="none" id="combinationPicker-to-playService" style="stroke:#000000;stroke-width:1.0;"/><polygon fill="#000000" points="453.36,198.4885,463.17,197.6143,457.7308,196.0603,459.2848,190.6211,453.36,198.4885" style="stroke:#000000;stroke-width:1.0;"/><text fill="#000000" font-family="Verdana" font-size="13" lengthAdjust="spacing" textLength="137" x="533.5" y="164.7554">addPropComb(comb)</text></g><!--MD5=[1d9ae2164f6d964b2da5293c95690a5f]
link playService to httpClient--><g id="link_playService_httpClient"><path d="M471.29,216.6885 C519.19,216.6885 591.84,216.6885 639.73,216.6885 " fill="none" id="playService-to-httpClient" style="stroke:#000000;stroke-width:1.0;"/><polygon fill="#000000" points="644.87,216.6885,635.87,212.6885,639.87,216.6885,635.87,220.6885,644.87,216.6885" style="stroke:#000000;stroke-width:1.0;"/><text fill="#000000" font-family="Verdana" font-size="13" lengthAdjust="spacing" textLength="137" x="489.5" y="209.7554">addPropComb(comb)</text></g><!--MD5=[1a90bef3919469a801538a1c67714f8b]
reverse link restPlayView to httpClient--><g id="link_restPlayView_httpClient"><path d="M818.8,112.9285 C802.39,124.7285 783.39,138.6485 766.5,151.6885 C746.53,167.1085 724.35,185.4285 708.76,198.5085 " fill="none" id="restPlayView-backto-httpClient" style="stroke:#000000;stroke-width:1.0;"/><polygon fill="#000000" points="822.92,109.9785,813.2767,111.9803,818.8591,112.8955,817.9439,118.4778,822.92,109.9785" style="stroke:#000000;stroke-width:1.0;"/><text fill="#000000" font-family="Verdana" font-size="13" lengthAdjust="spacing" textLength="67" x="767.5" y="164.7554">put(comb)</text></g><!--MD5=[d10584734652ac7ab4c2189e2974ea24]
link restPlayView to boardDTO--><g id="link_restPlayView_boardDTO"><path d="M854.62,109.8585 C850,134.1785 843.12,170.3285 838.73,193.4485 " fill="none" id="restPlayView-to-boardDTO" style="stroke:#000000;stroke-width:1.0;"/><polygon fill="#000000" points="837.77,198.4685,843.3715,190.3676,838.6983,193.5554,835.5106,188.8823,837.77,198.4685" style="stroke:#000000;stroke-width:1.0;"/><text fill="#000000" font-family="Verdana" font-size="13" lengthAdjust="spacing" textLength="137" x="846.5" y="164.7554">addPropComb(comb)</text></g><!--MD5=[e9df535a9f72d9fa681b93aea7465d5d]
link boardDTO to playController--><g id="link_boardDTO_playController"><path d="M834.5,234.7085 C834.5,263.4785 834.5,321.7685 834.5,353.9885 " fill="none" id="boardDTO-to-playController" style="stroke:#000000;stroke-width:1.0;"/><polygon fill="#000000" points="834.5,359.3085,838.5,350.3085,834.5,354.3085,830.5,350.3085,834.5,359.3085" style="stroke:#000000;stroke-width:1.0;"/><text fill="#000000" font-family="Verdana" font-size="13" lengthAdjust="spacing" textLength="137" x="835.5" y="279.7554">addPropComb(comb)</text></g><!--MD5=[41809c2a2433746a93772f45f45a76a4]
reverse link proposedCombinationController to playController--><g id="link_proposedCombinationController_playController"><path d="M645.64,377.6885 C691.22,377.6885 740.45,377.6885 777.22,377.6885 " fill="none" id="proposedCombinationController-backto-playController" style="stroke:#000000;stroke-width:1.0;"/><polygon fill="#000000" points="640.39,377.6885,649.39,381.6885,645.39,377.6885,649.39,373.6885,640.39,377.6885" style="stroke:#000000;stroke-width:1.0;"/><text fill="#000000" font-family="Verdana" font-size="13" lengthAdjust="spacing" textLength="101" x="658.25" y="370.7554">addPropComb()</text></g><!--MD5=[235b4adf7e6ab0a867d0f8b5c1bc9674]
link proposedCombinationController to session--><g id="link_proposedCombinationController_session"><path d="M519.5,395.7985 C519.5,430.0085 519.5,506.8485 519.5,545.1285 " fill="none" id="proposedCombinationController-to-session" style="stroke:#000000;stroke-width:1.0;"/><polygon fill="#000000" points="519.5,550.4885,523.5,541.4885,519.5,545.4885,515.5,541.4885,519.5,550.4885" style="stroke:#000000;stroke-width:1.0;"/><text fill="#000000" font-family="Verdana" font-size="13" lengthAdjust="spacing" textLength="101" x="520.5" y="440.7554">addPropComb()</text><text fill="#000000" font-family="Verdana" font-size="13" lengthAdjust="spacing" textLength="81" x="530.5" y="455.8882">nextAttempt</text><text fill="#000000" font-family="Verdana" font-size="13" lengthAdjust="spacing" textLength="46" x="548" y="471.021">regist()</text></g><!--MD5=[751b61c69a1b342c470f63ee712c1c84]
link session to game--><g id="link_session_game"><path d="M499.7,586.8785 C491.82,595.0185 483.64,605.4285 479.5,616.6885 C474.59,630.0385 473.38,635.8485 479.5,648.6885 C484.77,659.7485 494.05,669.0385 503.67,676.3685 " fill="none" id="session-to-game" style="stroke:#000000;stroke-width:1.0;"/><polygon fill="#000000" points="507.8,679.3985,502.8973,670.8566,503.7644,676.4466,498.1743,677.3136,507.8,679.3985" style="stroke:#000000;stroke-width:1.0;"/><text fill="#000000" font-family="Verdana" font-size="13" lengthAdjust="spacing" textLength="101" x="480.5" y="629.7554">addPropComb()</text><text fill="#000000" font-family="Verdana" font-size="13" lengthAdjust="spacing" textLength="81" x="490.5" y="644.8882">nextAttempt</text></g><!--MD5=[dbdecfaa6cb1599a8aec4d82bde6daa1]
link session to registry--><g id="link_session_registry"><path d="M549.11,586.9085 C561.52,594.9785 575.56,605.3285 586.5,616.6885 C603.05,633.8885 617.34,657.2185 626.54,674.0685 " fill="none" id="session-to-registry" style="stroke:#000000;stroke-width:1.0;"/><polygon fill="#000000" points="629,678.6285,628.2512,668.8081,626.6278,674.227,621.2089,672.6037,629,678.6285" style="stroke:#000000;stroke-width:1.0;"/><text fill="#000000" font-family="Verdana" font-size="13" lengthAdjust="spacing" textLength="46" x="610.5" y="637.2554">regist()</text></g><!--MD5=[efc360da957eeea4d29a12abad6526e9]
reverse link game to registry--><g id="link_game_registry"><path d="M572.32,696.6885 C582.15,696.6885 591.97,696.6885 601.79,696.6885 " fill="none" id="game-backto-registry" style="stroke:#000000;stroke-width:1.0;stroke-dasharray:7.0,7.0;"/><polygon fill="#000000" points="567.19,696.6885,576.19,700.6885,572.19,696.6885,576.19,692.6885,567.19,696.6885" style="stroke:#000000;stroke-width:1.0;"/></g><!--MD5=[1640d1dec454c1c89ce15a7833c73fe4]
reverse link proposedCombination to game--><g id="link_proposedCombination_game"><path d="M442.72,696.6885 C466.23,696.6885 489.85,696.6885 507.63,696.6885 " fill="none" id="proposedCombination-backto-game" style="stroke:#000000;stroke-width:1.0;"/><polygon fill="#000000" points="437.7,696.6885,446.7,700.6885,442.7,696.6885,446.7,692.6885,437.7,696.6885" style="stroke:#000000;stroke-width:1.0;"/><text fill="#000000" font-family="Verdana" font-size="13" lengthAdjust="spacing" textLength="34" x="455.75" y="689.7554">add()</text></g><!--MD5=[3c85399be6012747154436e9af0b858d]
link proposedCombination to combination--><g id="link_proposedCombination_combination"><path d="M350.5,715.1085 C350.5,730.6485 350.5,753.4685 350.5,770.3485 " fill="none" id="proposedCombination-to-combination" style="stroke:#000000;stroke-width:1.0;stroke-dasharray:7.0,7.0;"/><polygon fill="#000000" points="350.5,775.3785,354.5,766.3785,350.5,770.3785,346.5,766.3785,350.5,775.3785" style="stroke:#000000;stroke-width:1.0;"/></g><!--MD5=[d6cc83c0867acb4bf0fcbd3e204ad836]
link combination to colors--><g id="link_combination_colors"><path d="M403.03,793.6885 C413.05,793.6885 423.08,793.6885 433.1,793.6885 " fill="none" id="combination-to-colors" style="stroke:#000000;stroke-width:1.0;stroke-dasharray:7.0,7.0;"/><polygon fill="#000000" points="438.34,793.6885,429.34,789.6885,433.34,793.6885,429.34,797.6885,438.34,793.6885" style="stroke:#000000;stroke-width:1.0;"/></g><!--MD5=[1025433167e2a7d16ae36f4c088cfd02]
@startuml colaboration-propose-combination
!theme plain
actor player

package angular{
    agent combinationPickerHTML
    agent combinationPicker
    agent playService
    agent httpClient
}
package controllers <<master-mind-core dependency>> {
    agent playController
    agent proposedCombinationController
}
package models <<master-mind-core dependency>> {
    agent session
    agent registry
    agent game
    agent proposedCombination
    agent combination
    agent colors
}

package spring-rest-views {
    agent restPlayView <<@RestCotroller>>
    agent boardDTO
}

'angular
player -right-> combinationPickerHTML :addPropComb(comb)
combinationPickerHTML -right-> combinationPicker :addPropComb(comb)
combinationPicker - -> playService :addPropComb(comb)
playService -right-> httpClient :addPropComb(comb)
httpClient -up-> restPlayView :put(comb)

'spring
restPlayView - -> boardDTO :addPropComb(comb)
boardDTO - -> playController :addPropComb(comb)

'controllers
playController -left-> proposedCombinationController :addPropComb()
proposedCombinationController - -> session :addPropComb()\nnextAttempt\nregist()

'models
session -down-> game :addPropComb()\nnextAttempt
session -down-> registry :regist()
registry .left.> game
game -left-> proposedCombination :add()
proposedCombination ..> combination
combination .right.> colors

@enduml

@startuml colaboration-propose-combination







<style>
  root {
    BackgroundColor white
    FontColor black
    FontName Verdana
    HyperLinkColor blue
    LineColor black
    LineThickness 1
    Margin 5
  }
  caption {
    LineThickness 0
  }
  footer {
    LineThickness 0
  }
  header {
    LineThickness 0
  }
  node {
    MaximumWidth 300
  }
  title {
    FontSize 22
    LineThickness 0
  }
</style>

skinparam ArrowLollipopColor black
skinparam BackgroundColor white
skinparam DefaultFontName Verdana
skinparam DefaultMonospacedFontName Courier
skinparam LifelineStrategy nosolid
skinparam ParticipantPadding 10
skinparam SequenceLifeLineBorderColor black
skinparam Shadowing false
skinparam UseBetaStyle true

skinparam Activity {
  BackgroundColor white
  BarColor black
  BorderColor black
  FontColor black
  FontName Verdana
}
skinparam Boundary {
  FontColor black
}
skinparam Box {
  Padding 5
}
skinparam CircledCharacter {
  FontColor black
  FontName Courier
  Radius 9
}
skinparam Class {
  BackgroundColor white
  BorderColor black
  FontColor black
  FontName Verdana
}
skinparam ClassAttribute {
  FontColor black
  FontName Verdana
}
skinparam ClassStereotype {
  FontColor black
  FontName Verdana
}
skinparam Footer {
  FontColor black
  FontName Verdana
}
skinparam Header {
  FontColor black
  FontName Verdana
}
skinparam Hyperlink {
  Color blue
}
skinparam IconPackage {
  Color black
  BackgroundColor white
}
skinparam IconPrivate {
  Color black
  BackgroundColor white
}
skinparam IconProtected {
  Color black
  BackgroundColor white
}
skinparam IconPublic {
  Color black
  BackgroundColor white
}
skinparam Note {
  FontColor black
  FontName Verdana
}
skinparam Object {
  BorderColor black
}
skinparam Package {
  BorderColor black
  FontColor black
  FontName Verdana
}
skinparam State {
  BackgroundColor white
  BorderColor black
}
skinparam StereotypeA {
  BackgroundColor white
  BorderColor black
}
skinparam StereotypeC {
  BackgroundColor white
  BorderColor black
}
skinparam StereotypeE {
  BackgroundColor white
  BorderColor black
}
skinparam StereotypeI {
  BackgroundColor white
  BorderColor black
}
skinparam StereotypeN {
  BackgroundColor white
  BorderColor black
}
skinparam UseCaseStereoType {
  FontColor black
  FontName Verdana
}
actor player

package angular{
    agent combinationPickerHTML
    agent combinationPicker
    agent playService
    agent httpClient
}
package controllers <<master-mind-core dependency>> {
    agent playController
    agent proposedCombinationController
}
package models <<master-mind-core dependency>> {
    agent session
    agent registry
    agent game
    agent proposedCombination
    agent combination
    agent colors
}

package spring-rest-views {
    agent restPlayView <<@RestCotroller>>
    agent boardDTO
}

player -right-> combinationPickerHTML :addPropComb(comb)
combinationPickerHTML -right-> combinationPicker :addPropComb(comb)
combinationPicker - -> playService :addPropComb(comb)
playService -right-> httpClient :addPropComb(comb)
httpClient -up-> restPlayView :put(comb)

restPlayView - -> boardDTO :addPropComb(comb)
boardDTO - -> playController :addPropComb(comb)

playController -left-> proposedCombinationController :addPropComb()
proposedCombinationController - -> session :addPropComb()\nnextAttempt\nregist()

session -down-> game :addPropComb()\nnextAttempt
session -down-> registry :regist()
registry .left.> game
game -left-> proposedCombination :add()
proposedCombination ..> combination
combination .right.> colors

@enduml

PlantUML version 1.2022.7(Mon Aug 22 12:01:30 CDT 2022)
(GPL source distribution)
Java Runtime: OpenJDK Runtime Environment
JVM: OpenJDK 64-Bit Server VM
Default Encoding: UTF-8
Language: en
Country: US
--></g></svg>