<?xml version="1.0" encoding="UTF-8" standalone="no"?><svg xmlns="http://www.w3.org/2000/svg" xmlns:xlink="http://www.w3.org/1999/xlink" contentStyleType="text/css" height="922px" preserveAspectRatio="none" style="width:1267px;height:922px;background:#FFFFFF;" version="1.1" viewBox="0 0 1267 922" width="1267px" zoomAndPan="magnify"><defs/><g><!--MD5=[64daa5a824998c700cfb188d1583c07e]
cluster analysis--><g id="cluster_analysis"><path d="M713.5,409.1191 L816.5,409.1191 A3.75,3.75 0 0 1 819,411.6191 L826,441.8564 L867.5,441.8564 A2.5,2.5 0 0 1 870,444.3564 L870,778.1191 A2.5,2.5 0 0 1 867.5,780.6191 L713.5,780.6191 A2.5,2.5 0 0 1 711,778.1191 L711,411.6191 A2.5,2.5 0 0 1 713.5,409.1191 " fill="#FFFFFF" style="stroke:#000000;stroke-width:1.0;"/><line style="stroke:#000000;stroke-width:1.0;" x1="711" x2="826" y1="441.8564" y2="441.8564"/><text fill="#000000" font-family="Verdana" font-size="22" font-weight="bold" lengthAdjust="spacing" textLength="102" x="715" y="433.2373">analysis</text></g><!--MD5=[464b8a121da435760d275ace2e6f7972]
cluster front--><g id="cluster_front"><path d="M936.5,519.1191 L998.5,519.1191 A3.75,3.75 0 0 1 1001,521.6191 L1008,551.8564 L1184.5,551.8564 A2.5,2.5 0 0 1 1187,554.3564 L1187,912.6191 A2.5,2.5 0 0 1 1184.5,915.1191 L936.5,915.1191 A2.5,2.5 0 0 1 934,912.6191 L934,521.6191 A2.5,2.5 0 0 1 936.5,519.1191 " fill="#FFFFFF" style="stroke:#000000;stroke-width:1.0;"/><line style="stroke:#000000;stroke-width:1.0;" x1="934" x2="1008" y1="551.8564" y2="551.8564"/><text fill="#000000" font-family="Verdana" font-size="22" font-weight="bold" lengthAdjust="spacing" textLength="61" x="938" y="543.2373">front</text><text fill="#000000" font-family="Verdana" font-size="14" font-style="italic" lengthAdjust="spacing" textLength="73" x="1028" y="567.9316">«Angular»</text></g><!--MD5=[47c14c564e796a575e671c2b0469a7bb]
cluster backend--><g id="cluster_backend"><path d="M13.5,12.1191 L118.5,12.1191 A3.75,3.75 0 0 1 121,14.6191 L128,44.8564 L684.5,44.8564 A2.5,2.5 0 0 1 687,47.3564 L687,684.6191 A2.5,2.5 0 0 1 684.5,687.1191 L13.5,687.1191 A2.5,2.5 0 0 1 11,684.6191 L11,14.6191 A2.5,2.5 0 0 1 13.5,12.1191 " fill="#FFFFFF" style="stroke:#000000;stroke-width:1.0;"/><line style="stroke:#000000;stroke-width:1.0;" x1="11" x2="128" y1="44.8564" y2="44.8564"/><text fill="#000000" font-family="Verdana" font-size="22" font-weight="bold" lengthAdjust="spacing" textLength="104" x="15" y="36.2373">backend</text><text fill="#000000" font-family="Verdana" font-size="14" font-style="italic" lengthAdjust="spacing" textLength="98" x="304" y="60.9316">«SpringBoot»</text></g><!--MD5=[36bed372667e8e2b035a3bfb59668f70]
cluster app-core--><g id="cluster_app-core"><path d="M276.5,265.1191 L387.5,265.1191 A3.75,3.75 0 0 1 390,267.6191 L397,297.8564 L540.5,297.8564 A2.5,2.5 0 0 1 543,300.3564 L543,660.6191 A2.5,2.5 0 0 1 540.5,663.1191 L276.5,663.1191 A2.5,2.5 0 0 1 274,660.6191 L274,267.6191 A2.5,2.5 0 0 1 276.5,265.1191 " fill="#FFFFFF" style="stroke:#000000;stroke-width:1.0;"/><line style="stroke:#000000;stroke-width:1.0;" x1="274" x2="397" y1="297.8564" y2="297.8564"/><text fill="#000000" font-family="Verdana" font-size="22" font-weight="bold" lengthAdjust="spacing" textLength="110" x="278" y="289.2373">app-core</text><text fill="#000000" font-family="Verdana" font-size="14" font-style="italic" lengthAdjust="spacing" textLength="153" x="336" y="313.9316">«Maven dependency»</text></g><!--MD5=[b843a707a9d29bfe6172f1502199d263]
entity XView--><g id="elem_XView"><path d="M795.5,458.1191 L795.5,482.1191 M795.5,470.1191 L812.5,470.1191 " fill="none" style="stroke:#000000;stroke-width:1.0;"/><ellipse cx="824.5" cy="470.1191" fill="#FFFFFF" rx="12" ry="12" style="stroke:#000000;stroke-width:1.0;"/><text fill="#000000" font-family="Verdana" font-size="14" lengthAdjust="spacing" textLength="42" x="795" y="500.1943">XView</text></g><!--MD5=[a91319e7cfad8d66707571e19cb9c3d9]
entity XController--><g id="elem_XController"><ellipse cx="804" cy="605.6191" fill="#FFFFFF" rx="12" ry="12" style="stroke:#000000;stroke-width:1.0;"/><polygon fill="#000000" points="800,593.6191,806,588.6191,804,593.6191,806,598.6191,800,593.6191" style="stroke:#000000;stroke-width:1.0;"/><text fill="#000000" font-family="Verdana" font-size="14" lengthAdjust="spacing" textLength="79" x="764.5" y="635.6943">XController</text></g><!--MD5=[3d3c7c6b097889d312e80a936bff3df4]
entity XDAO--><g id="elem_XDAO"><ellipse cx="833" cy="731.6191" fill="#FFFFFF" rx="12" ry="12" style="stroke:#000000;stroke-width:1.0;"/><line style="stroke:#000000;stroke-width:1.0;" x1="821" x2="845" y1="745.6191" y2="745.6191"/><text fill="#000000" font-family="Verdana" font-size="14" lengthAdjust="spacing" textLength="42" x="812" y="761.6943">XDAO</text></g><!--MD5=[fd32a81c2404801ffd3250cd88dc7b13]
entity XModel--><g id="elem_XModel"><ellipse cx="752" cy="731.6191" fill="#FFFFFF" rx="12" ry="12" style="stroke:#000000;stroke-width:1.0;"/><line style="stroke:#000000;stroke-width:1.0;" x1="740" x2="764" y1="745.6191" y2="745.6191"/><text fill="#000000" font-family="Verdana" font-size="14" lengthAdjust="spacing" textLength="50" x="727" y="761.6943">XModel</text></g><!--MD5=[a3edbb8dad9f9f19b387a25039170bf8]
entity Template--><g id="elem_Template"><ellipse cx="982" cy="614.1338" fill="#FFFFFF" rx="12" ry="12" style="stroke:#000000;stroke-width:1.0;"/><line style="stroke:#000000;stroke-width:1.0;" x1="970" x2="994" y1="628.1338" y2="628.1338"/><text fill="#000000" font-family="Verdana" font-size="14" lengthAdjust="spacing" textLength="64" x="950" y="644.209">Template</text><text fill="#000000" font-family="Verdana" font-size="14" font-style="italic" lengthAdjust="spacing" textLength="58" x="953" y="595.1943">«HTML»</text></g><!--MD5=[62296f1ee755fac49e7fc97c2aaa7a34]
entity Style--><g id="elem_Style"><path d="M958.5,728.1338 L958.5,752.1338 M958.5,740.1338 L975.5,740.1338 " fill="none" style="stroke:#000000;stroke-width:1.0;"/><ellipse cx="987.5" cy="740.1338" fill="#FFFFFF" rx="12" ry="12" style="stroke:#000000;stroke-width:1.0;"/><text fill="#000000" font-family="Verdana" font-size="14" lengthAdjust="spacing" textLength="35" x="961.5" y="770.209">Style</text><text fill="#000000" font-family="Verdana" font-size="14" font-style="italic" lengthAdjust="spacing" textLength="46" x="956" y="721.1943">«CSS»</text></g><!--MD5=[dd66107c5d7f1f2551781a15352aa3e6]
entity ViewComponents--><g id="elem_ViewComponents"><ellipse cx="1110" cy="614.1338" fill="#FFFFFF" rx="12" ry="12" style="stroke:#000000;stroke-width:1.0;"/><polygon fill="#000000" points="1106,602.1338,1112,597.1338,1110,602.1338,1112,607.1338,1106,602.1338" style="stroke:#000000;stroke-width:1.0;"/><text fill="#000000" font-family="Verdana" font-size="14" lengthAdjust="spacing" textLength="122" x="1049" y="644.209">ViewComponents</text><text fill="#000000" font-family="Verdana" font-size="14" font-style="italic" lengthAdjust="spacing" textLength="84" x="1068" y="595.1943">«Typscript»</text></g><!--MD5=[3ab6bc66408bc465e62c4c0dcccb802d]
entity Services--><g id="elem_Services"><ellipse cx="1110" cy="740.1338" fill="#FFFFFF" rx="12" ry="12" style="stroke:#000000;stroke-width:1.0;"/><polygon fill="#000000" points="1106,728.1338,1112,723.1338,1110,728.1338,1112,733.1338,1106,728.1338" style="stroke:#000000;stroke-width:1.0;"/><text fill="#000000" font-family="Verdana" font-size="14" lengthAdjust="spacing" textLength="58" x="1081" y="770.209">Services</text><text fill="#000000" font-family="Verdana" font-size="14" font-style="italic" lengthAdjust="spacing" textLength="84" x="1068" y="721.1943">«Typscript»</text></g><!--MD5=[8ec8f91d29256e203bf86b1b1281348e]
entity BoardDTO--><g id="elem_BoardDTO"><ellipse cx="1129" cy="866.1338" fill="#FFFFFF" rx="12" ry="12" style="stroke:#000000;stroke-width:1.0;"/><polygon fill="#000000" points="1125,854.1338,1131,849.1338,1129,854.1338,1131,859.1338,1125,854.1338" style="stroke:#000000;stroke-width:1.0;"/><text fill="#000000" font-family="Verdana" font-size="14" lengthAdjust="spacing" textLength="73" x="1092.5" y="896.209">BoardDTO</text><text fill="#000000" font-family="Verdana" font-size="14" font-style="italic" lengthAdjust="spacing" textLength="84" x="1087" y="847.1943">«Typscript»</text></g><!--MD5=[11f4769666054cda26d2bc303b3df0b5]
entity HTTPService--><g id="elem_HTTPService"><ellipse cx="1009" cy="866.1338" fill="#FFFFFF" rx="12" ry="12" style="stroke:#000000;stroke-width:1.0;"/><polygon fill="#000000" points="1005,854.1338,1011,849.1338,1009,854.1338,1011,859.1338,1005,854.1338" style="stroke:#000000;stroke-width:1.0;"/><text fill="#000000" font-family="Verdana" font-size="14" lengthAdjust="spacing" textLength="86" x="966" y="896.209">HTTPService</text><text fill="#000000" font-family="Verdana" font-size="14" font-style="italic" lengthAdjust="spacing" textLength="84" x="967" y="847.1943">«Typscript»</text></g><!--MD5=[0137c21c6872d9d262ec172a497ae91e]
entity RestViews--><g id="elem_RestViews"><ellipse cx="486" cy="216.1338" fill="#FFFFFF" rx="12" ry="12" style="stroke:#000000;stroke-width:1.0;"/><polygon fill="#000000" points="482,204.1338,488,199.1338,486,204.1338,488,209.1338,482,204.1338" style="stroke:#000000;stroke-width:1.0;"/><text fill="#000000" font-family="Verdana" font-size="14" lengthAdjust="spacing" textLength="72" x="450" y="246.209">RestViews</text><text fill="#000000" font-family="Verdana" font-size="14" font-style="italic" lengthAdjust="spacing" textLength="134" x="419" y="197.1943">«@RestController»</text></g><!--MD5=[dab59585735e6f7652ba8aa2695287ab]
entity ApiMasterMind--><g id="elem_ApiMasterMind"><ellipse cx="456" cy="90.1191" fill="#FFFFFF" rx="12" ry="12" style="stroke:#000000;stroke-width:1.0;"/><polygon fill="#000000" points="452,78.1191,458,73.1191,456,78.1191,458,83.1191,452,78.1191" style="stroke:#000000;stroke-width:1.0;"/><text fill="#000000" font-family="Verdana" font-size="14" lengthAdjust="spacing" textLength="101" x="405.5" y="120.1943">ApiMasterMind</text></g><!--MD5=[ee90a05427d8b3a5ba77c977e384c790]
entity BoardDTO_Java--><g id="elem_BoardDTO_Java"><ellipse cx="615" cy="351.6191" fill="#FFFFFF" rx="12" ry="12" style="stroke:#000000;stroke-width:1.0;"/><line style="stroke:#000000;stroke-width:1.0;" x1="603" x2="627" y1="365.6191" y2="365.6191"/><text fill="#000000" font-family="Verdana" font-size="14" lengthAdjust="spacing" textLength="112" x="559" y="381.6943">BoardDTO_Java</text></g><!--MD5=[97682df8e442f80df87f482ea92562e0]
entity SessionAPIDAO--><g id="elem_SessionAPIDAO"><ellipse cx="258" cy="90.1191" fill="#FFFFFF" rx="12" ry="12" style="stroke:#000000;stroke-width:1.0;"/><line style="stroke:#000000;stroke-width:1.0;" x1="246" x2="270" y1="104.1191" y2="104.1191"/><text fill="#000000" font-family="Verdana" font-size="14" lengthAdjust="spacing" textLength="110" x="203" y="120.1943">SessionAPIDAO</text></g><!--MD5=[046587d2a8daa5aee0d3a6e6bd6f31f3]
entity GameDAO--><g id="elem_GameDAO"><ellipse cx="228" cy="216.1338" fill="#FFFFFF" rx="12" ry="12" style="stroke:#000000;stroke-width:1.0;"/><line style="stroke:#000000;stroke-width:1.0;" x1="216" x2="240" y1="230.1338" y2="230.1338"/><text fill="#000000" font-family="Verdana" font-size="14" lengthAdjust="spacing" textLength="72" x="192" y="246.209">GameDAO</text><text fill="#000000" font-family="Verdana" font-size="14" font-style="italic" lengthAdjust="spacing" textLength="108" x="174" y="197.1943">«@Repository»</text></g><!--MD5=[70b4a440639e02c02475db39fde329e3]
entity GameEntity--><g id="elem_GameEntity"><ellipse cx="217" cy="351.6191" fill="#FFFFFF" rx="12" ry="12" style="stroke:#000000;stroke-width:1.0;"/><line style="stroke:#000000;stroke-width:1.0;" x1="205" x2="229" y1="365.6191" y2="365.6191"/><text fill="#000000" font-family="Verdana" font-size="14" lengthAdjust="spacing" textLength="81" x="176.5" y="381.6943">GameEntity</text></g><!--MD5=[b2aaae3edf23cbeff8dbdad55044fd8a]
entity PropCombDAO--><g id="elem_PropCombDAO"><ellipse cx="84" cy="216.1338" fill="#FFFFFF" rx="12" ry="12" style="stroke:#000000;stroke-width:1.0;"/><line style="stroke:#000000;stroke-width:1.0;" x1="72" x2="96" y1="230.1338" y2="230.1338"/><text fill="#000000" font-family="Verdana" font-size="14" lengthAdjust="spacing" textLength="105" x="31.5" y="246.209">PropCombDAO</text><text fill="#000000" font-family="Verdana" font-size="14" font-style="italic" lengthAdjust="spacing" textLength="108" x="30" y="197.1943">«@Repository»</text></g><!--MD5=[e20aa307f73851ff8c9e81e43ea0b79d]
entity PropCombEntity--><g id="elem_PropCombEntity"><ellipse cx="84" cy="351.6191" fill="#FFFFFF" rx="12" ry="12" style="stroke:#000000;stroke-width:1.0;"/><line style="stroke:#000000;stroke-width:1.0;" x1="72" x2="96" y1="365.6191" y2="365.6191"/><text fill="#000000" font-family="Verdana" font-size="14" lengthAdjust="spacing" textLength="114" x="27" y="381.6943">PropCombEntity</text></g><!--MD5=[8b1586afe2bbb1175c208ec6c91dc929]
entity CoreSessionDAO--><g id="elem_CoreSessionDAO"><ellipse cx="350" cy="614.1338" fill="#FFFFFF" rx="12" ry="12" style="stroke:#000000;stroke-width:1.0;"/><line style="stroke:#000000;stroke-width:1.0;" x1="338" x2="362" y1="628.1338" y2="628.1338"/><text fill="#000000" font-family="Verdana" font-size="14" lengthAdjust="spacing" textLength="120" x="290" y="644.209">CoreSessionDAO</text><text fill="#000000" font-family="Verdana" font-size="14" font-style="italic" lengthAdjust="spacing" textLength="76" x="312" y="595.1943">«abstract»</text></g><!--MD5=[fc1ca7b7ebc9b00e1e01118923b79014]
entity CoreViews--><g id="elem_CoreViews"><path d="M465.5,348.1338 L465.5,372.1338 M465.5,360.1338 L482.5,360.1338 " fill="none" style="stroke:#000000;stroke-width:1.0;"/><ellipse cx="494.5" cy="360.1338" fill="#FFFFFF" rx="12" ry="12" style="stroke:#000000;stroke-width:1.0;"/><text fill="#000000" font-family="Verdana" font-size="14" lengthAdjust="spacing" textLength="73" x="449.5" y="390.209">CoreViews</text><text fill="#000000" font-family="Verdana" font-size="14" font-style="italic" lengthAdjust="spacing" textLength="76" x="448" y="341.1943">«abstract»</text></g><!--MD5=[cf6cff4068e8dd695eebf1f0ee1ed4b8]
entity CoreControllers--><g id="elem_CoreControllers"><ellipse cx="412" cy="470.1191" fill="#FFFFFF" rx="12" ry="12" style="stroke:#000000;stroke-width:1.0;"/><polygon fill="#000000" points="408,458.1191,414,453.1191,412,458.1191,414,463.1191,408,458.1191" style="stroke:#000000;stroke-width:1.0;"/><text fill="#000000" font-family="Verdana" font-size="14" lengthAdjust="spacing" textLength="110" x="357" y="500.1943">CoreControllers</text></g><!--MD5=[5b9d10650593f02df21ea1864d6848c4]
entity CoreModels--><g id="elem_CoreModels"><ellipse cx="486" cy="605.6191" fill="#FFFFFF" rx="12" ry="12" style="stroke:#000000;stroke-width:1.0;"/><line style="stroke:#000000;stroke-width:1.0;" x1="474" x2="498" y1="619.6191" y2="619.6191"/><text fill="#000000" font-family="Verdana" font-size="14" lengthAdjust="spacing" textLength="81" x="445.5" y="635.6943">CoreModels</text></g><!--MD5=[50a2f9fbc7f4e317ae9a157602683354]
link XView to XController--><g id="link_XView_XController"><path d="M813.88,503.1791 C811.85,525.8191 808.77,560.0791 806.59,584.3291 " fill="none" id="XView-to-XController" style="stroke:#000000;stroke-width:1.0;"/><polygon fill="#000000" points="806.14,589.3491,810.9206,580.7383,806.5824,584.3687,802.952,580.0305,806.14,589.3491" style="stroke:#000000;stroke-width:1.0;"/></g><!--MD5=[ec381c4eec30df59611508dbe01cdcf3]
link XView to XModel--><g id="link_XView_XModel"><path d="M791.46,483.8691 C775.83,487.9891 756.75,495.9391 747,511.1191 C707.34,572.8191 727.7,664.6091 741.98,710.6391 " fill="none" id="XView-to-XModel" style="stroke:#000000;stroke-width:1.0;"/><polygon fill="#000000" points="743.51,715.4891,744.6001,705.7008,741.9975,710.7234,736.9749,708.1208,743.51,715.4891" style="stroke:#000000;stroke-width:1.0;"/></g><!--MD5=[b87fd9631df6affa7e778aa25e2c6d03]
link XController to XModel--><g id="link_XController_XModel"><path d="M794.1,638.7391 C785.49,659.2491 773.02,688.9991 763.88,710.7891 " fill="none" id="XController-to-XModel" style="stroke:#000000;stroke-width:1.0;"/><polygon fill="#000000" points="761.87,715.5891,769.0565,708.8546,763.8154,710.9831,761.6869,705.742,761.87,715.5891" style="stroke:#000000;stroke-width:1.0;"/></g><!--MD5=[0d95fea56a75b9c17caa8f96f96ff615]
link XController to XDAO--><g id="link_XController_XDAO"><path d="M809.52,638.7391 C814.3,659.1591 821.22,688.7491 826.31,710.5191 " fill="none" id="XController-to-XDAO" style="stroke:#000000;stroke-width:1.0;"/><polygon fill="#000000" points="827.5,715.5891,829.3655,705.9186,826.3715,710.7181,821.572,707.7241,827.5,715.5891" style="stroke:#000000;stroke-width:1.0;"/></g><!--MD5=[54b4556b56e0435c137aa2e84f6461eb]
reverse link Template to ViewComponents--><g id="link_Template_ViewComponents"><path d="M1019.59,614.1191 C1029.34,614.1191 1039.08,614.1191 1048.82,614.1191 " fill="none" id="Template-backto-ViewComponents" style="stroke:#000000;stroke-width:1.0;"/><polygon fill="#000000" points="1014.5,614.1191,1023.5,618.1191,1019.5,614.1191,1023.5,610.1191,1014.5,614.1191" style="stroke:#000000;stroke-width:1.0;"/></g><!--MD5=[40e339a6a0826cd1d223440c5baebe87]
link Template to Style--><g id="link_Template_Style"><path d="M981.22,647.3791 C980.82,664.0191 980.32,684.4191 979.9,701.7491 " fill="none" id="Template-to-Style" style="stroke:#000000;stroke-width:1.0;"/><polygon fill="#000000" points="979.78,707.0291,984.01,698.1349,979.9085,702.0308,976.0127,697.9293,979.78,707.0291" style="stroke:#000000;stroke-width:1.0;"/></g><!--MD5=[6bfa56cd04a56b5764f10f0b09bc64aa]
link ViewComponents to Services--><g id="link_ViewComponents_Services"><path d="M1110,647.3791 C1110,664.0191 1110,684.4191 1110,701.7491 " fill="none" id="ViewComponents-to-Services" style="stroke:#000000;stroke-width:1.0;"/><polygon fill="#000000" points="1110,707.0291,1114,698.0291,1110,702.0291,1106,698.0291,1110,707.0291" style="stroke:#000000;stroke-width:1.0;"/></g><!--MD5=[faf710fb92fc637e581a540cd11e67c1]
link Services to BoardDTO--><g id="link_Services_BoardDTO"><path d="M1114.94,773.3791 C1117.49,790.0191 1120.62,810.4191 1123.27,827.7491 " fill="none" id="Services-to-BoardDTO" style="stroke:#000000;stroke-width:1.0;"/><polygon fill="#000000" points="1124.08,833.0291,1126.667,823.5261,1123.3208,828.0871,1118.7598,824.7409,1124.08,833.0291" style="stroke:#000000;stroke-width:1.0;"/></g><!--MD5=[f5b32f94387055719042aff77ab6d425]
link Services to HTTPService--><g id="link_Services_HTTPService"><path d="M1076.1455,782.6784 C1076.1455,782.6784 1053.78,810.1391 1043.5,822.7591 " fill="none" id="Services-HTTPService" style="stroke:#000000;stroke-width:1.0;"/><polygon fill="#000000" points="1035.14,833.0291,1043.925,828.5768,1038.2975,829.1523,1037.722,823.5248,1035.14,833.0291" style="stroke:#000000;stroke-width:1.0;"/><line style="stroke:#000000;stroke-width:1.0;" x1="1038.2975" x2="1043.35" y1="829.1523" y2="822.9441"/><polygon fill="#000000" points="1083.73,773.3791,1076.838,775.5006,1076.1455,782.6784,1083.0375,780.5569,1083.73,773.3791" style="stroke:#000000;stroke-width:1.0;"/></g><!--MD5=[f59b00571800679f0674f538d5faeaed]
reverse link XView to ViewComponents--><g id="link_XView_ViewComponents"><path d="M845.74,481.2391 C897.16,484.4891 1000.14,493.0891 1031,511.1191 C1058.85,527.3891 1080.37,557.6291 1093.86,580.9691 " fill="none" id="XView-backto-ViewComponents" style="stroke:#000000;stroke-width:1.0;stroke-dasharray:7.0,7.0;"/><polygon fill="#000000" points="840.63,480.9291,849.3735,485.4625,845.621,481.2295,849.854,477.4769,840.63,480.9291" style="stroke:#000000;stroke-width:1.0;"/></g><!--MD5=[85ec9ee8d2cea0c35f4faedd3e68fe1e]
reverse link XView to Template--><g id="link_XView_Template"><path d="M846,482.3891 C869.12,485.8591 900.78,493.6491 923,511.1191 C945.67,528.9491 961.27,558.0791 970.71,580.6591 " fill="none" id="XView-backto-Template" style="stroke:#000000;stroke-width:1.0;stroke-dasharray:7.0,7.0;"/><polygon fill="#000000" points="840.91,481.6791,849.277,486.8746,845.8628,482.3643,850.3732,478.9501,840.91,481.6791" style="stroke:#000000;stroke-width:1.0;"/></g><!--MD5=[2c549730705e3c2c28b08771eeeba8a6]
reverse link XView to Style--><g id="link_XView_Style"><path d="M844.74,495.9091 C850.69,500.2691 856.51,505.3791 861,511.1191 C915.03,580.1391 882.99,622.4491 932,695.1191 C938.12,704.1991 946.45,712.7791 954.39,719.9091 " fill="none" id="XView-backto-Style" style="stroke:#000000;stroke-width:1.0;stroke-dasharray:7.0,7.0;"/><polygon fill="#000000" points="840.62,493.0191,845.717,501.4465,844.7222,495.8778,850.2909,494.883,840.62,493.0191" style="stroke:#000000;stroke-width:1.0;"/></g><!--MD5=[f26233b973f6a6a4df660efcb225060e]
link BoardDTO to BoardDTO_Java--><g id="link_BoardDTO_BoardDTO_Java"><path d="M1148.6,833.0591 C1186.52,766.4391 1260.2,610.9791 1189,511.1191 C1129.15,427.1791 811.94,382.7991 676.44,367.4291 " fill="none" id="BoardDTO-to-BoardDTO_Java" style="stroke:#000000;stroke-width:1.0;stroke-dasharray:7.0,7.0;"/><polygon fill="#000000" points="671.31,366.8491,679.8069,371.8293,676.2787,367.4076,680.7004,363.8794,671.31,366.8491" style="stroke:#000000;stroke-width:1.0;"/></g><!--MD5=[c89f0ec74805749a2acb9c48d742f00e]
link Services to RestViews--><g id="link_Services_RestViews"><path d="M1152.15,725.6991 C1166.42,718.9091 1180.81,709.0591 1189,695.1191 C1230.43,624.6191 1231.8,580.7991 1189,511.1191 C1052.41,288.7191 708.83,234.4991 558.42,221.3291 " fill="none" id="Services-to-RestViews" style="stroke:#000000;stroke-width:1.0;stroke-dasharray:7.0,7.0;"/><polygon fill="#000000" points="553.15,220.8691,561.7732,225.6274,558.1315,221.2986,562.4603,217.6569,553.15,220.8691" style="stroke:#000000;stroke-width:1.0;"/></g><!--MD5=[d481860e041fcf9d170455cd94f167ea]
reverse link XController to Services--><g id="link_XController_Services"><path d="M838.43,641.8291 C863.52,659.8691 899.1,682.5991 934,695.1191 C970.74,708.2991 983.1,697.7991 1021,707.1191 C1036.63,710.9591 1053.33,716.5491 1068,721.9891 " fill="none" id="XController-backto-Services" style="stroke:#000000;stroke-width:1.0;stroke-dasharray:7.0,7.0;"/><polygon fill="#000000" points="834.18,638.7491,839.1221,647.2683,838.2292,641.6823,843.8152,640.7895,834.18,638.7491" style="stroke:#000000;stroke-width:1.0;"/></g><!--MD5=[50f292805be158adba6071d1f8d603b5]
link ApiMasterMind to RestViews--><g id="link_ApiMasterMind_RestViews"><path d="M462.14,123.2691 C466.22,138.9591 471.65,159.8691 476.3,177.7791 " fill="none" id="ApiMasterMind-to-RestViews" style="stroke:#000000;stroke-width:1.0;"/><polygon fill="#000000" points="477.59,182.7391,479.2003,173.0228,476.3337,177.8995,471.457,175.0329,477.59,182.7391" style="stroke:#000000;stroke-width:1.0;"/></g><!--MD5=[a0a6540d3216dbfb5ff8e45034684e7f]
link ApiMasterMind to SessionAPIDAO--><g id="link_ApiMasterMind_SessionAPIDAO"><path d="M405.27,98.6191 C376.29,98.6191 347.31,98.6191 318.33,98.6191 " fill="none" id="ApiMasterMind-to-SessionAPIDAO" style="stroke:#000000;stroke-width:1.0;"/><polygon fill="#000000" points="313.3,98.6191,322.3,102.6191,318.3,98.6191,322.3,94.6191,313.3,98.6191" style="stroke:#000000;stroke-width:1.0;"/></g><!--MD5=[5410efaf54d40c74343d1022ed67b39f]
link RestViews to BoardDTO_Java--><g id="link_RestViews_BoardDTO_Java"><path d="M534.26,249.1291 C537.32,251.7091 540.26,254.3891 543,257.1191 C565.35,279.4091 585.58,309.3491 598.86,331.0191 " fill="none" id="RestViews-to-BoardDTO_Java" style="stroke:#000000;stroke-width:1.0;"/><polygon fill="#000000" points="601.58,335.5191,600.3556,325.7467,598.997,331.238,593.5057,329.8794,601.58,335.5191" style="stroke:#000000;stroke-width:1.0;"/></g><!--MD5=[ec62d0a5a63442c4ebd6ff4170244ed3]
link SessionAPIDAO to GameDAO--><g id="link_SessionAPIDAO_GameDAO"><path d="M251.86,123.2691 C247.78,138.9591 242.35,159.8691 237.7,177.7791 " fill="none" id="SessionAPIDAO-to-GameDAO" style="stroke:#000000;stroke-width:1.0;"/><polygon fill="#000000" points="236.41,182.7391,242.543,175.0329,237.6663,177.8995,234.7997,173.0228,236.41,182.7391" style="stroke:#000000;stroke-width:1.0;"/></g><!--MD5=[ed8e6743c301906c8372ec29add596f3]
link SessionAPIDAO to PropCombDAO--><g id="link_SessionAPIDAO_PropCombDAO"><path d="M222.37,123.2691 C197.74,139.6191 164.54,161.6591 136.84,180.0391 " fill="none" id="SessionAPIDAO-to-PropCombDAO" style="stroke:#000000;stroke-width:1.0;"/><polygon fill="#000000" points="132.45,182.9591,142.1612,181.3182,136.6168,180.1956,137.7395,174.6512,132.45,182.9591" style="stroke:#000000;stroke-width:1.0;"/></g><!--MD5=[5a019c1d3d988fed36f71edd6db5d0ad]
link GameDAO to GameEntity--><g id="link_GameDAO_GameEntity"><path d="M225.5,249.3391 C223.62,273.6891 221.05,306.7991 219.23,330.2791 " fill="none" id="GameDAO-to-GameEntity" style="stroke:#000000;stroke-width:1.0;"/><polygon fill="#000000" points="218.83,335.4291,223.5123,326.7645,219.2157,330.444,215.5361,326.1474,218.83,335.4291" style="stroke:#000000;stroke-width:1.0;"/></g><!--MD5=[7c8f64b09d69d70c07e9a29977c78212]
link PropCombDAO to PropCombEntity--><g id="link_PropCombDAO_PropCombEntity"><path d="M84,249.3391 C84,273.6891 84,306.7991 84,330.2791 " fill="none" id="PropCombDAO-to-PropCombEntity" style="stroke:#000000;stroke-width:1.0;"/><polygon fill="#000000" points="84,335.4291,88,326.4291,84,330.4291,80,326.4291,84,335.4291" style="stroke:#000000;stroke-width:1.0;"/></g><!--MD5=[48376a23e6c08b9a619fc2103dc10391]
link RestViews to CoreControllers--><g id="link_RestViews_CoreControllers"><path d="M435.56,249.1391 C433.47,251.6591 431.59,254.3091 430,257.1191 C395.4,318.1191 401,404.2591 407.05,448.6591 " fill="none" id="RestViews-to-CoreControllers" style="stroke:#000000;stroke-width:1.0;"/><polygon fill="#000000" points="407.79,453.8691,410.4885,444.3972,407.0889,448.9185,402.5675,445.5189,407.79,453.8691" style="stroke:#000000;stroke-width:1.0;"/></g><!--MD5=[61ebd7b7973307bb320888fda86e6c7b]
link RestViews to CoreViews--><g id="link_RestViews_CoreViews"><path d="M486,249.3391 C486,270.9491 486,299.4591 486,322.0191 " fill="none" id="RestViews-to-CoreViews" style="stroke:#000000;stroke-width:1.0;"/><polygon fill="#000000" points="486,327.0291,490,318.0291,486,322.0291,482,318.0291,486,327.0291" style="stroke:#000000;stroke-width:1.0;"/></g><!--MD5=[67fada0668f3ae9f10e13aee2591dd81]
link SessionAPIDAO to CoreSessionDAO--><g id="link_SessionAPIDAO_CoreSessionDAO"><path d="M272.28,123.2191 C281.43,139.4791 292.73,161.8991 299,183.1191 C310.01,220.3891 336.51,478.0491 346.29,575.7091 " fill="none" id="SessionAPIDAO-to-CoreSessionDAO" style="stroke:#000000;stroke-width:1.0;"/><polygon fill="#000000" points="346.8,580.7891,349.882,571.4349,346.3011,575.8141,341.9219,572.2332,346.8,580.7891" style="stroke:#000000;stroke-width:1.0;"/></g><!--MD5=[baf45c8bea3bd712a2bc098f230d79db]
link GameEntity to XModel--><g id="link_GameEntity_XModel"><path d="M212.5,384.9491 C202.35,446.6891 185.07,612.8091 274,695.1191 C306.86,725.5291 621.4,735.8891 721.54,738.4291 " fill="none" id="GameEntity-to-XModel" style="stroke:#000000;stroke-width:1.0;stroke-dasharray:7.0,7.0;"/><polygon fill="#000000" points="726.71,738.5591,717.8038,734.3545,721.7113,738.4449,717.6209,742.3524,726.71,738.5591" style="stroke:#000000;stroke-width:1.0;"/></g><!--MD5=[11dc7dbc03c85261a4862360b3bcdd76]
link PropCombEntity to XModel--><g id="link_PropCombEntity_XModel"><path d="M83.86,385.0391 C84.91,447.7491 97.28,617.4291 197,695.1191 C238.56,727.4991 611.93,736.6391 721.75,738.6391 " fill="none" id="PropCombEntity-to-XModel" style="stroke:#000000;stroke-width:1.0;stroke-dasharray:7.0,7.0;"/><polygon fill="#000000" points="726.78,738.7291,717.8499,734.5755,721.7807,738.6434,717.7128,742.5743,726.78,738.7291" style="stroke:#000000;stroke-width:1.0;"/></g><!--MD5=[c90e3500bfcbcca482ec118ec726b61b]
link CoreViews to CoreControllers--><g id="link_CoreViews_CoreControllers"><path d="M465.58,393.2591 C454.4,410.8691 440.67,432.4891 429.9,449.4291 " fill="none" id="CoreViews-to-CoreControllers" style="stroke:#000000;stroke-width:1.0;"/><polygon fill="#000000" points="426.95,454.0791,435.1601,448.6391,429.6372,449.8626,428.4136,444.3396,426.95,454.0791" style="stroke:#000000;stroke-width:1.0;"/></g><!--MD5=[08291a1ce0c5886fc4b23057253e28fa]
link CoreViews to CoreModels--><g id="link_CoreViews_CoreModels"><path d="M486,393.2891 C486,442.7391 486,536.6491 486,584.1191 " fill="none" id="CoreViews-to-CoreModels" style="stroke:#000000;stroke-width:1.0;"/><polygon fill="#000000" points="486,589.3891,490,580.3891,486,584.3891,482,580.3891,486,589.3891" style="stroke:#000000;stroke-width:1.0;"/></g><!--MD5=[f4b8b5995a7e61cb13f11fd06b70f067]
link CoreControllers to CoreModels--><g id="link_CoreControllers_CoreModels"><path d="M425.06,503.1791 C437.72,526.0091 456.92,560.6591 470.38,584.9391 " fill="none" id="CoreControllers-to-CoreModels" style="stroke:#000000;stroke-width:1.0;"/><polygon fill="#000000" points="472.82,589.3491,471.9704,579.537,470.4027,584.9723,464.9674,583.4046,472.82,589.3491" style="stroke:#000000;stroke-width:1.0;"/></g><!--MD5=[ece19dc22fadb6ffb751cc50a4a898b1]
link CoreControllers to CoreSessionDAO--><g id="link_CoreControllers_CoreSessionDAO"><path d="M401.06,503.1791 C391.67,523.3891 377.99,552.8591 367.15,576.1991 " fill="none" id="CoreControllers-to-CoreSessionDAO" style="stroke:#000000;stroke-width:1.0;"/><polygon fill="#000000" points="365.02,580.7791,372.435,574.2971,367.1235,576.2431,365.1774,570.9315,365.02,580.7791" style="stroke:#000000;stroke-width:1.0;"/></g><!--MD5=[235c920b3f80762b8c4f28df6f82a032]
link CoreViews to XView--><g id="link_CoreViews_XView"><path d="M524.08,391.0191 C525.38,391.7491 526.69,392.4591 528,393.1191 C616.52,437.8891 732.64,462.7991 786.36,472.6291 " fill="none" id="CoreViews-to-XView" style="stroke:#000000;stroke-width:1.0;stroke-dasharray:7.0,7.0;"/><polygon fill="#000000" points="791.37,473.5391,783.235,467.9875,786.4513,472.6409,781.7979,475.8573,791.37,473.5391" style="stroke:#000000;stroke-width:1.0;"/></g><!--MD5=[6f7d89d84e477fdc0fa88b14db25d75c]
link CoreControllers to XController--><g id="link_CoreControllers_XController"><path d="M467.27,491.1491 C490.81,496.5091 518.45,503.4091 543,511.1191 C620.56,535.4791 708.08,571.4991 759.5,593.5791 " fill="none" id="CoreControllers-to-XController" style="stroke:#000000;stroke-width:1.0;stroke-dasharray:7.0,7.0;"/><polygon fill="#000000" points="764.37,595.6691,757.6923,588.4298,759.7795,593.6875,754.5217,595.7746,764.37,595.6691" style="stroke:#000000;stroke-width:1.0;"/></g><!--MD5=[83d92e36c1f8a6eab42d87930dc12f47]
link CoreModels to XModel--><g id="link_CoreModels_XModel"><path d="M526.69,634.0891 C580.58,659.2091 674.37,702.9291 722.16,725.2091 " fill="none" id="CoreModels-to-XModel" style="stroke:#000000;stroke-width:1.0;stroke-dasharray:7.0,7.0;"/><polygon fill="#000000" points="726.91,727.4291,720.4472,719.9973,722.3794,725.3139,717.0628,727.2462,726.91,727.4291" style="stroke:#000000;stroke-width:1.0;"/></g><!--MD5=[2641ed64e1e54f81feca8dee2c18381b]
link CoreSessionDAO to XDAO--><g id="link_CoreSessionDAO_XDAO"><path d="M371.64,647.1991 C385.48,664.7891 405.1,685.0191 428,695.1191 C502.46,727.9591 717.84,678.4591 794,707.1191 C798.8,708.9191 803.44,711.5791 807.74,714.5891 " fill="none" id="CoreSessionDAO-to-XDAO" style="stroke:#000000;stroke-width:1.0;stroke-dasharray:7.0,7.0;"/><polygon fill="#000000" points="811.93,717.7091,807.0957,709.1284,807.918,714.7252,802.3213,715.5475,811.93,717.7091" style="stroke:#000000;stroke-width:1.0;"/></g><!--MD5=[d6db5cf34f7fd0ca2e7c71b83b1dbc9a]
@startuml analysis-architecture
!theme plain

package analysis{
    boundary XView
    control XController
    entity XDAO
    entity XModel
}

package front <<Angular>> {
    entity Template <<HTML>>
    boundary Style <<CSS>>
    control ViewComponents <<Typscript>>
    control Services <<Typscript>>
    control BoardDTO <<Typscript>>
    control HTTPService <<Typscript>>
}

package backend <<SpringBoot>> {
    control RestViews <<@RestController>>
    control ApiMasterMind
    entity BoardDTO_Java

    entity SessionAPIDAO
    entity GameDAO <<@Repository>>
    entity GameEntity
    entity PropCombDAO <<@Repository>>
    entity PropCombEntity

    package app-core <<Maven dependency>> {
        entity CoreSessionDAO <<abstract>>
        boundary CoreViews <<abstract>>
        control CoreControllers
        entity CoreModels
    }
}


' analysis
XView - -> XController
XView - -> XModel
XController - -> XModel
XController - -> XDAO

' front
ViewComponents -left-> Template
Template - -> Style
ViewComponents - -> Services
Services - -> BoardDTO
Services *- -> HTTPService

ViewComponents .up.> XView
Template .up.> XView
Style .up.> XView
BoardDTO ..> BoardDTO_Java

Services ..> RestViews
Services .up.> XController

' backend
ApiMasterMind - -> RestViews
ApiMasterMind -right-> SessionAPIDAO
RestViews - -> BoardDTO_Java

SessionAPIDAO - -> GameDAO
SessionAPIDAO - -> PropCombDAO
GameDAO - -> GameEntity
PropCombDAO - -> PropCombEntity

RestViews - -> CoreControllers
RestViews - -> CoreViews
SessionAPIDAO - -> CoreSessionDAO
GameEntity ..> XModel
PropCombEntity ..> XModel


' app-core
CoreViews - -> CoreControllers
CoreViews - -> CoreModels
CoreControllers - -> CoreModels
CoreControllers - -> CoreSessionDAO

CoreViews ..> XView
CoreControllers ..> XController
CoreModels ..> XModel
CoreSessionDAO ..> XDAO
@end

@startuml analysis-architecture







<style>
  root {
    BackgroundColor white
    FontColor black
    FontName Verdana
    HyperLinkColor blue
    LineColor black
    LineThickness 1
    Margin 5
  }
  caption {
    LineThickness 0
  }
  footer {
    LineThickness 0
  }
  header {
    LineThickness 0
  }
  node {
    MaximumWidth 300
  }
  title {
    FontSize 22
    LineThickness 0
  }
</style>

skinparam ArrowLollipopColor black
skinparam BackgroundColor white
skinparam DefaultFontName Verdana
skinparam DefaultMonospacedFontName Courier
skinparam LifelineStrategy nosolid
skinparam ParticipantPadding 10
skinparam SequenceLifeLineBorderColor black
skinparam Shadowing false
skinparam UseBetaStyle true

skinparam Activity {
  BackgroundColor white
  BarColor black
  BorderColor black
  FontColor black
  FontName Verdana
}
skinparam Boundary {
  FontColor black
}
skinparam Box {
  Padding 5
}
skinparam CircledCharacter {
  FontColor black
  FontName Courier
  Radius 9
}
skinparam Class {
  BackgroundColor white
  BorderColor black
  FontColor black
  FontName Verdana
}
skinparam ClassAttribute {
  FontColor black
  FontName Verdana
}
skinparam ClassStereotype {
  FontColor black
  FontName Verdana
}
skinparam Footer {
  FontColor black
  FontName Verdana
}
skinparam Header {
  FontColor black
  FontName Verdana
}
skinparam Hyperlink {
  Color blue
}
skinparam IconPackage {
  Color black
  BackgroundColor white
}
skinparam IconPrivate {
  Color black
  BackgroundColor white
}
skinparam IconProtected {
  Color black
  BackgroundColor white
}
skinparam IconPublic {
  Color black
  BackgroundColor white
}
skinparam Note {
  FontColor black
  FontName Verdana
}
skinparam Object {
  BorderColor black
}
skinparam Package {
  BorderColor black
  FontColor black
  FontName Verdana
}
skinparam State {
  BackgroundColor white
  BorderColor black
}
skinparam StereotypeA {
  BackgroundColor white
  BorderColor black
}
skinparam StereotypeC {
  BackgroundColor white
  BorderColor black
}
skinparam StereotypeE {
  BackgroundColor white
  BorderColor black
}
skinparam StereotypeI {
  BackgroundColor white
  BorderColor black
}
skinparam StereotypeN {
  BackgroundColor white
  BorderColor black
}
skinparam UseCaseStereoType {
  FontColor black
  FontName Verdana
}

package analysis{
    boundary XView
    control XController
    entity XDAO
    entity XModel
}

package front <<Angular>> {
    entity Template <<HTML>>
    boundary Style <<CSS>>
    control ViewComponents <<Typscript>>
    control Services <<Typscript>>
    control BoardDTO <<Typscript>>
    control HTTPService <<Typscript>>
}

package backend <<SpringBoot>> {
    control RestViews <<@RestController>>
    control ApiMasterMind
    entity BoardDTO_Java

    entity SessionAPIDAO
    entity GameDAO <<@Repository>>
    entity GameEntity
    entity PropCombDAO <<@Repository>>
    entity PropCombEntity

    package app-core <<Maven dependency>> {
        entity CoreSessionDAO <<abstract>>
        boundary CoreViews <<abstract>>
        control CoreControllers
        entity CoreModels
    }
}


XView - -> XController
XView - -> XModel
XController - -> XModel
XController - -> XDAO

ViewComponents -left-> Template
Template - -> Style
ViewComponents - -> Services
Services - -> BoardDTO
Services *- -> HTTPService

ViewComponents .up.> XView
Template .up.> XView
Style .up.> XView
BoardDTO ..> BoardDTO_Java

Services ..> RestViews
Services .up.> XController

ApiMasterMind - -> RestViews
ApiMasterMind -right-> SessionAPIDAO
RestViews - -> BoardDTO_Java

SessionAPIDAO - -> GameDAO
SessionAPIDAO - -> PropCombDAO
GameDAO - -> GameEntity
PropCombDAO - -> PropCombEntity

RestViews - -> CoreControllers
RestViews - -> CoreViews
SessionAPIDAO - -> CoreSessionDAO
GameEntity ..> XModel
PropCombEntity ..> XModel


CoreViews - -> CoreControllers
CoreViews - -> CoreModels
CoreControllers - -> CoreModels
CoreControllers - -> CoreSessionDAO

CoreViews ..> XView
CoreControllers ..> XController
CoreModels ..> XModel
CoreSessionDAO ..> XDAO
@end

PlantUML version 1.2022.7(Mon Aug 22 12:01:30 CDT 2022)
(GPL source distribution)
Java Runtime: Java(TM) SE Runtime Environment
JVM: Java HotSpot(TM) 64-Bit Server VM
Default Encoding: Cp1252
Language: es
Country: MX
--></g></svg>