<?xml version="1.0" encoding="UTF-8" standalone="no"?><svg xmlns="http://www.w3.org/2000/svg" xmlns:xlink="http://www.w3.org/1999/xlink" contentStyleType="text/css" height="776px" preserveAspectRatio="none" style="width:1009px;height:776px;background:#FFFFFF;" version="1.1" viewBox="0 0 1009 776" width="1009px" zoomAndPan="magnify"><defs/><g><!--MD5=[d36c75923fc9501e085215a0f1133f63]
cluster angular--><g id="cluster_angular"><path d="M117,21.1885 L215,21.1885 A3.75,3.75 0 0 1 217.5,23.6885 L224.5,52.7979 L586,52.7979 A2.5,2.5 0 0 1 588.5,55.2979 L588.5,309.1885 A2.5,2.5 0 0 1 586,311.6885 L117,311.6885 A2.5,2.5 0 0 1 114.5,309.1885 L114.5,23.6885 A2.5,2.5 0 0 1 117,21.1885 " fill="#FFFFFF" style="stroke:#000000;stroke-width:1.0;"/><line style="stroke:#000000;stroke-width:1.0;" x1="114.5" x2="224.5" y1="52.7979" y2="52.7979"/><text fill="#000000" font-family="Verdana" font-size="22" font-weight="bold" lengthAdjust="spacing" textLength="97" x="118.5" y="43.6094">angular</text></g><!--MD5=[f4e70ef68289585296b9045165e58692]
cluster controllers--><g id="cluster_controllers"><path d="M621,199.6885 L758,199.6885 A3.75,3.75 0 0 1 760.5,202.1885 L767.5,231.2979 L864,231.2979 A2.5,2.5 0 0 1 866.5,233.7979 L866.5,309.1885 A2.5,2.5 0 0 1 864,311.6885 L621,311.6885 A2.5,2.5 0 0 1 618.5,309.1885 L618.5,202.1885 A2.5,2.5 0 0 1 621,199.6885 " fill="#FFFFFF" style="stroke:#000000;stroke-width:1.0;"/><line style="stroke:#000000;stroke-width:1.0;" x1="618.5" x2="767.5" y1="231.2979" y2="231.2979"/><text fill="#000000" font-family="Verdana" font-size="22" font-weight="bold" lengthAdjust="spacing" textLength="136" x="622.5" y="222.1094">controllers</text><text fill="#000000" font-family="Verdana" font-size="14" font-style="italic" lengthAdjust="spacing" textLength="232" x="630.5" y="246.293">«master-mind-core dependency»</text></g><!--MD5=[7a06356ce7b0867e27ff31b460c620a1]
cluster spring-rest-views--><g id="cluster_spring-rest-views"><path d="M615,12.6885 L834,12.6885 A3.75,3.75 0 0 1 836.5,15.1885 L843.5,44.2979 L844,44.2979 A2.5,2.5 0 0 1 846.5,46.7979 L846.5,123.1885 A2.5,2.5 0 0 1 844,125.6885 L615,125.6885 A2.5,2.5 0 0 1 612.5,123.1885 L612.5,15.1885 A2.5,2.5 0 0 1 615,12.6885 " fill="#FFFFFF" style="stroke:#000000;stroke-width:1.0;"/><line style="stroke:#000000;stroke-width:1.0;" x1="612.5" x2="843.5" y1="44.2979" y2="44.2979"/><text fill="#000000" font-family="Verdana" font-size="22" font-weight="bold" lengthAdjust="spacing" textLength="218" x="616.5" y="35.1094">spring-rest-views</text></g><!--MD5=[c0e28dbc2622c9fd5bd7e25c84240cfc]
cluster spring-dao--><g id="cluster_spring-dao"><path d="M250,375.6885 L386,375.6885 A3.75,3.75 0 0 1 388.5,378.1885 L395.5,407.2979 L654,407.2979 A2.5,2.5 0 0 1 656.5,409.7979 L656.5,651.6885 A2.5,2.5 0 0 1 654,654.1885 L250,654.1885 A2.5,2.5 0 0 1 247.5,651.6885 L247.5,378.1885 A2.5,2.5 0 0 1 250,375.6885 " fill="#FFFFFF" style="stroke:#000000;stroke-width:1.0;"/><line style="stroke:#000000;stroke-width:1.0;" x1="247.5" x2="395.5" y1="407.2979" y2="407.2979"/><text fill="#000000" font-family="Verdana" font-size="22" font-weight="bold" lengthAdjust="spacing" textLength="135" x="251.5" y="398.1094">spring-dao</text></g><!--MD5=[a60570e4b426f702ccbb0d459e3b9417]
cluster models--><g id="cluster_models"><path d="M683,533.6885 L774,533.6885 A3.75,3.75 0 0 1 776.5,536.1885 L783.5,565.2979 L1000,565.2979 A2.5,2.5 0 0 1 1002.5,567.7979 L1002.5,766.6885 A2.5,2.5 0 0 1 1000,769.1885 L683,769.1885 A2.5,2.5 0 0 1 680.5,766.6885 L680.5,536.1885 A2.5,2.5 0 0 1 683,533.6885 " fill="#FFFFFF" style="stroke:#000000;stroke-width:1.0;"/><line style="stroke:#000000;stroke-width:1.0;" x1="680.5" x2="783.5" y1="565.2979" y2="565.2979"/><text fill="#000000" font-family="Verdana" font-size="22" font-weight="bold" lengthAdjust="spacing" textLength="90" x="684.5" y="556.1094">models</text><text fill="#000000" font-family="Verdana" font-size="14" font-style="italic" lengthAdjust="spacing" textLength="232" x="729.5" y="580.293">«master-mind-core dependency»</text></g><!--MD5=[47db5c988c28400f3c06bcf25e36d295]
entity startViewHTML--><g id="elem_startViewHTML"><rect fill="#FFFFFF" height="36.2969" rx="2.5" ry="2.5" style="stroke:#000000;stroke-width:1.0;" width="121" x="131" y="65.1885"/><text fill="#000000" font-family="Verdana" font-size="14" lengthAdjust="spacing" textLength="101" x="141" y="88.1836">startViewHTML</text></g><!--MD5=[afc6e61bb5837e8d2d50a34ca396abb4]
entity startViewComponent--><g id="elem_startViewComponent"><rect fill="#FFFFFF" height="36.2969" rx="2.5" ry="2.5" style="stroke:#000000;stroke-width:1.0;" width="165" x="407" y="65.1885"/><text fill="#000000" font-family="Verdana" font-size="14" lengthAdjust="spacing" textLength="145" x="417" y="88.1836">startViewComponent</text></g><!--MD5=[5dd8062b06fc456a0f3b717844bc9cab]
entity startService--><g id="elem_startService"><rect fill="#FFFFFF" height="36.2969" rx="2.5" ry="2.5" style="stroke:#000000;stroke-width:1.0;" width="101" x="240" y="259.6885"/><text fill="#000000" font-family="Verdana" font-size="14" lengthAdjust="spacing" textLength="81" x="250" y="282.6836">startService</text></g><!--MD5=[dd56e33f0238782510eb7f5893c5b221]
entity httpClient--><g id="elem_httpClient"><rect fill="#FFFFFF" height="36.2969" rx="2.5" ry="2.5" style="stroke:#000000;stroke-width:1.0;" width="87" x="485" y="259.6885"/><text fill="#000000" font-family="Verdana" font-size="14" lengthAdjust="spacing" textLength="67" x="495" y="282.6836">httpClient</text></g><!--MD5=[9be06ed98f0657ace32e5a74d13793c6]
entity startController--><g id="elem_startController"><rect fill="#FFFFFF" height="36.2969" rx="2.5" ry="2.5" style="stroke:#000000;stroke-width:1.0;" width="118" x="640.5" y="259.6885"/><text fill="#000000" font-family="Verdana" font-size="14" lengthAdjust="spacing" textLength="98" x="650.5" y="282.6836">startController</text></g><!--MD5=[0a223e890849d533366e551f3e2f9e2c]
entity restStartView--><g id="elem_restStartView"><rect fill="#FFFFFF" height="52.5938" rx="2.5" ry="2.5" style="stroke:#000000;stroke-width:1.0;" width="141" x="629" y="56.6885"/><text fill="#000000" font-family="Verdana" font-size="14" font-style="italic" lengthAdjust="spacing" textLength="121" x="639" y="79.6836">«@RestCotroller»</text><text fill="#000000" font-family="Verdana" font-size="14" lengthAdjust="spacing" textLength="91" x="654" y="95.9805">restStartView</text></g><!--MD5=[18e17601343045acbd01698847016141]
entity sessionImpDAO--><g id="elem_sessionImpDAO"><rect fill="#FFFFFF" height="36.2969" rx="2.5" ry="2.5" style="stroke:#000000;stroke-width:1.0;" width="130" x="483.5" y="419.6885"/><text fill="#000000" font-family="Verdana" font-size="14" lengthAdjust="spacing" textLength="110" x="493.5" y="442.6836">sessionImpDAO</text></g><!--MD5=[9b1729daf5800274fa0ed42c63213414]
entity gameDAO--><g id="elem_gameDAO"><rect fill="#FFFFFF" height="52.5938" rx="2.5" ry="2.5" style="stroke:#000000;stroke-width:1.0;" width="112" x="296.5" y="585.1885"/><text fill="#000000" font-family="Verdana" font-size="14" font-style="italic" lengthAdjust="spacing" textLength="92" x="306.5" y="608.1836">«Repository»</text><text fill="#000000" font-family="Verdana" font-size="14" lengthAdjust="spacing" textLength="70" x="317.5" y="624.4805">gameDAO</text></g><!--MD5=[1e7686ede22288f75d3ce2dfd7d2a8a3]
entity gameDTO--><g id="elem_gameDTO"><rect fill="#FFFFFF" height="36.2969" rx="2.5" ry="2.5" style="stroke:#000000;stroke-width:1.0;" width="90" x="476.5" y="593.6885"/><text fill="#000000" font-family="Verdana" font-size="14" lengthAdjust="spacing" textLength="70" x="486.5" y="616.6836">gameDTO</text></g><!--MD5=[3cc8c711f13e618a9f246baa7cb77485]
entity session--><g id="elem_session"><rect fill="#FFFFFF" height="36.2969" rx="2.5" ry="2.5" style="stroke:#000000;stroke-width:1.0;" width="74" x="912.5" y="593.6885"/><text fill="#000000" font-family="Verdana" font-size="14" lengthAdjust="spacing" textLength="54" x="922.5" y="616.6836">session</text></g><!--MD5=[5ee56baf55e939591d3db5307d08d3e4]
entity sessionDTO--><g id="elem_sessionDTO"><rect fill="#FFFFFF" height="36.2969" rx="2.5" ry="2.5" style="stroke:#000000;stroke-width:1.0;" width="105" x="697" y="593.6885"/><text fill="#000000" font-family="Verdana" font-size="14" lengthAdjust="spacing" textLength="85" x="707" y="616.6836">sessionDTO</text></g><!--MD5=[60f39db9307333e30ad09f57b45aa936]
entity game--><g id="elem_game"><rect fill="#FFFFFF" height="36.2969" rx="2.5" ry="2.5" style="stroke:#000000;stroke-width:1.0;" width="59" x="708" y="717.1885"/><text fill="#000000" font-family="Verdana" font-size="14" lengthAdjust="spacing" textLength="39" x="718" y="740.1836">game</text></g><!--MD5=[d8eca564858595245321772129d300af]
entity player--><g id="elem_player"><ellipse cx="31.5" cy="53.6885" fill="#FFFFFF" rx="8" ry="8" style="stroke:#000000;stroke-width:1.0;"/><path d="M31.5,61.6885 L31.5,88.6885 M18.5,69.6885 L44.5,69.6885 M31.5,88.6885 L18.5,103.6885 M31.5,88.6885 L44.5,103.6885 " fill="none" style="stroke:#000000;stroke-width:1.0;"/><text fill="#000000" font-family="Verdana" font-size="14" lengthAdjust="spacing" textLength="41" x="11" y="118.6836">player</text></g><!--MD5=[0ae7a76cafc5c405b5649171689d634c]
link player to startViewHTML--><g id="link_player_startViewHTML"><path d="M52.09,83.1885 C70.68,83.1885 99.09,83.1885 125.42,83.1885 " fill="none" id="player-to-startViewHTML" style="stroke:#000000;stroke-width:1.0;"/><polygon fill="#000000" points="130.65,83.1885,121.65,79.1885,125.65,83.1885,121.65,87.1885,130.65,83.1885" style="stroke:#000000;stroke-width:1.0;"/><text fill="#000000" font-family="Verdana" font-size="13" lengthAdjust="spacing" textLength="42" x="70.5" y="76.2554">open()</text></g><!--MD5=[cfb670e7823d47835a6e7f32f8e1a653]
link startViewHTML to startViewComponent--><g id="link_startViewHTML_startViewComponent"><path d="M252.16,83.1885 C295.18,83.1885 353.58,83.1885 401.68,83.1885 " fill="none" id="startViewHTML-to-startViewComponent" style="stroke:#000000;stroke-width:1.0;"/><polygon fill="#000000" points="406.89,83.1885,397.89,79.1885,401.89,83.1885,397.89,87.1885,406.89,83.1885" style="stroke:#000000;stroke-width:1.0;"/><text fill="#000000" font-family="Verdana" font-size="13" lengthAdjust="spacing" textLength="118" x="270.5" y="76.2554">open(gameName)</text></g><!--MD5=[ea7db9f9c5f8de1f112f5ef0395ca4bd]
link startViewComponent to startService--><g id="link_startViewComponent_startService"><path d="M471.84,101.2685 C435.26,136.6585 351.31,217.8585 311.8,256.0785 " fill="none" id="startViewComponent-to-startService" style="stroke:#000000;stroke-width:1.0;"/><polygon fill="#000000" points="308.12,259.6485,317.3751,256.2806,311.7192,256.1778,311.8221,250.5219,308.12,259.6485" style="stroke:#000000;stroke-width:1.0;"/><text fill="#000000" font-family="Verdana" font-size="13" lengthAdjust="spacing" textLength="118" x="419.5" y="164.7554">open(gameName)</text><text fill="#000000" font-family="Verdana" font-size="13" lengthAdjust="spacing" textLength="77" x="440" y="179.8882">getNames()</text></g><!--MD5=[f10ab6e7aa3bbb502b642f5087d646da]
link startService to httpClient--><g id="link_startService_httpClient"><path d="M341.27,277.6885 C382.16,277.6885 439.29,277.6885 479.66,277.6885 " fill="none" id="startService-to-httpClient" style="stroke:#000000;stroke-width:1.0;"/><polygon fill="#000000" points="485,277.6885,476,273.6885,480,277.6885,476,281.6885,485,277.6885" style="stroke:#000000;stroke-width:1.0;"/><text fill="#000000" font-family="Verdana" font-size="13" lengthAdjust="spacing" textLength="107" x="359.5" y="270.7554">get(gameName)</text></g><!--MD5=[70195352f66e82f3303a37fab1a0c76f]
reverse link restStartView to httpClient--><g id="link_restStartView_httpClient"><path d="M633.91,112.3685 C615.5,122.6785 596.66,135.7885 582.5,151.6885 C553.88,183.8185 538.66,233.4385 532.25,259.4485 " fill="none" id="restStartView-backto-httpClient" style="stroke:#000000;stroke-width:1.0;"/><polygon fill="#000000" points="638.58,109.8085,628.7667,110.6446,634.1998,112.2197,632.6247,117.6528,638.58,109.8085" style="stroke:#000000;stroke-width:1.0;"/><text fill="#000000" font-family="Verdana" font-size="13" lengthAdjust="spacing" textLength="107" x="583.5" y="172.2554">get(gameName)</text></g><!--MD5=[63da039f8ee0b45bbec34b1ac9f7f751]
link restStartView to startController--><g id="link_restStartView_startController"><path d="M699.5,109.7485 C699.5,147.7685 699.5,218.5785 699.5,254.5185 " fill="none" id="restStartView-to-startController" style="stroke:#000000;stroke-width:1.0;"/><polygon fill="#000000" points="699.5,259.5685,703.5,250.5685,699.5,254.5685,695.5,250.5685,699.5,259.5685" style="stroke:#000000;stroke-width:1.0;"/><text fill="#000000" font-family="Verdana" font-size="13" lengthAdjust="spacing" textLength="107" x="700.5" y="172.2554">get(gameName)</text></g><!--MD5=[9e0b9653ef4d3ee50d08a994e551bc79]
link startController to session--><g id="link_startController_session"><path d="M747.1,295.7585 C764.15,303.5585 782.57,314.1385 796.5,327.6885 C877.21,406.1785 925.68,536.5285 942.64,588.3985 " fill="none" id="startController-to-session" style="stroke:#000000;stroke-width:1.0;"/><polygon fill="#000000" points="944.27,593.4585,945.325,583.6663,942.7404,588.6982,937.7085,586.1136,944.27,593.4585" style="stroke:#000000;stroke-width:1.0;"/><text fill="#000000" font-family="Verdana" font-size="13" lengthAdjust="spacing" textLength="38" x="886.5" y="442.2554">next()</text></g><!--MD5=[c2930912c6d1b51f027516d9d578c4fb]
link startController to sessionImpDAO--><g id="link_startController_sessionImpDAO"><path d="M673.59,295.8885 C661.16,304.7085 646.42,316.0285 634.5,327.6885 C606.27,355.2985 578.96,392.1985 562.95,415.1985 " fill="none" id="startController-to-sessionImpDAO" style="stroke:#000000;stroke-width:1.0;"/><polygon fill="#000000" points="560.09,419.3285,568.5174,414.2315,562.9487,415.2263,561.9539,409.6576,560.09,419.3285" style="stroke:#000000;stroke-width:1.0;"/><text fill="#000000" font-family="Verdana" font-size="13" lengthAdjust="spacing" textLength="156" x="635.5" y="340.7554">load(gameSelectedTitle)</text><text fill="#000000" font-family="Verdana" font-size="13" lengthAdjust="spacing" textLength="146" x="640.5" y="355.8882">associate(this.session)</text></g><!--MD5=[9cfd55350552baea5184e4ef4e2f72ef]
link sessionImpDAO to gameDAO--><g id="link_sessionImpDAO_gameDAO"><path d="M483.42,445.0385 C430.74,451.6785 362.58,464.1985 345.5,485.6885 C324.49,512.1185 331.55,552.4985 340.36,580.1585 " fill="none" id="sessionImpDAO-to-gameDAO" style="stroke:#000000;stroke-width:1.0;"/><polygon fill="#000000" points="342.02,585.1785,342.9952,575.378,340.4517,580.4308,335.3989,577.8873,342.02,585.1785" style="stroke:#000000;stroke-width:1.0;"/><text fill="#000000" font-family="Verdana" font-size="13" lengthAdjust="spacing" textLength="109" x="382.5" y="498.7554">find(gameName)</text><text fill="#000000" font-family="Verdana" font-size="13" lengthAdjust="spacing" textLength="181" x="346.5" y="513.8882">getPropCombs(gameName)</text></g><!--MD5=[fa52c654f8bfe3910b88ada136fea4c7]
link sessionImpDAO to sessionDTO--><g id="link_sessionImpDAO_sessionDTO"><path d="M612.31,455.7285 C631.39,462.8785 651.48,472.6485 667.5,485.6885 C702.32,514.0285 727.53,561.1485 740.21,588.7285 " fill="none" id="sessionImpDAO-to-sessionDTO" style="stroke:#000000;stroke-width:1.0;"/><polygon fill="#000000" points="742.29,593.3085,742.2072,583.46,740.221,588.7566,734.9243,586.7704,742.29,593.3085" style="stroke:#000000;stroke-width:1.0;"/><text fill="#000000" font-family="Verdana" font-size="13" lengthAdjust="spacing" textLength="74" x="696.5" y="506.2554">load(game)</text></g><!--MD5=[4236b00e0caf4c517db6ce30c1cb9c40]
link sessionImpDAO to gameDTO--><g id="link_sessionImpDAO_gameDTO"><path d="M545.81,455.8085 C540.9,487.1085 530.47,553.5185 525.01,588.3285 " fill="none" id="sessionImpDAO-to-gameDTO" style="stroke:#000000;stroke-width:1.0;"/><polygon fill="#000000" points="524.18,593.6385,529.52,585.3629,524.951,588.6983,521.6157,584.1293,524.18,593.6385" style="stroke:#000000;stroke-width:1.0;"/><text fill="#000000" font-family="Verdana" font-size="13" lengthAdjust="spacing" textLength="117" x="541.5" y="506.2554">getLoadedGame()</text></g><!--MD5=[b33bbbc2f334700adce0602b7189828d]
link gameDTO to game--><g id="link_gameDTO_game"><path d="M551.99,629.8385 C591.93,652.3085 661.77,691.5885 703.42,715.0185 " fill="none" id="gameDTO-to-game" style="stroke:#000000;stroke-width:1.0;"/><polygon fill="#000000" points="707.86,717.5185,701.9855,709.6134,703.5048,715.0624,698.0558,716.5818,707.86,717.5185" style="stroke:#000000;stroke-width:1.0;"/><text fill="#000000" font-family="Verdana" font-size="13" lengthAdjust="spacing" textLength="35" x="649.5" y="683.2554">new()</text></g><!--MD5=[c3f02d5bb4af33c1a48fdef1f00bbabb]
reverse link gameDAO to gameDTO--><g id="link_gameDAO_gameDTO"><path d="M413.62,611.6885 C434.44,611.6885 455.26,611.6885 476.08,611.6885 " fill="none" id="gameDAO-backto-gameDTO" style="stroke:#000000;stroke-width:1.0;stroke-dasharray:7.0,7.0;"/><polygon fill="#000000" points="408.61,611.6885,417.61,615.6885,413.61,611.6885,417.61,607.6885,408.61,611.6885" style="stroke:#000000;stroke-width:1.0;"/></g><!--MD5=[be0c05e9e41776c9383956cd4c0e3145]
link sessionDTO to session--><g id="link_sessionDTO_session"><path d="M802.05,611.6885 C834.87,611.6885 876.57,611.6885 907.24,611.6885 " fill="none" id="sessionDTO-to-session" style="stroke:#000000;stroke-width:1.0;"/><polygon fill="#000000" points="912.45,611.6885,903.45,607.6885,907.45,611.6885,903.45,615.6885,912.45,611.6885" style="stroke:#000000;stroke-width:1.0;"/><text fill="#000000" font-family="Verdana" font-size="13" lengthAdjust="spacing" textLength="74" x="820.25" y="604.7554">load(game)</text></g><!--MD5=[23bac820dad7f95545817cb23638e57e]
link sessionDTO to game--><g id="link_sessionDTO_game"><path d="M747.81,629.8385 C745.68,651.3685 742.03,688.3385 739.69,711.9985 " fill="none" id="sessionDTO-to-game" style="stroke:#000000;stroke-width:1.0;stroke-dasharray:7.0,7.0;"/><polygon fill="#000000" points="739.19,717.1285,744.0462,708.5601,739.6762,712.1522,736.0841,707.7822,739.19,717.1285" style="stroke:#000000;stroke-width:1.0;"/></g><!--MD5=[7c4505a883a50315bb986254a43357c7]
@startuml colaboration-open
!theme plain

actor player

package angular {
    agent startViewHTML
    agent startViewComponent
    agent startService
    agent httpClient
}

package controllers <<master-mind-core dependency>> {
    agent startController
}

package spring-rest-views {
    agent restStartView <<@RestCotroller>>
}

package spring-dao {
    agent sessionImpDAO
    agent gameDAO <<Repository>>
    agent gameDTO
}

package models <<master-mind-core dependency>>{
    agent session
    agent sessionDTO
    agent game
}

'angular
player -right-> startViewHTML :open()
startViewHTML -right-> startViewComponent :open(gameName)
startViewComponent - -> startService :open(gameName)\ngetNames()
startService -right-> httpClient :get(gameName)

httpClient -up-> restStartView :get(gameName)
restStartView - -> startController :get(gameName)

'controllers
startController - -> session :next()
startController - -> sessionImpDAO :load(gameSelectedTitle)\nassociate(this.session)

'springDAO
sessionImpDAO - -> gameDAO :find(gameName)\ngetPropCombs(gameName)
sessionImpDAO - -> sessionDTO :load(game)
sessionImpDAO - -> gameDTO :getLoadedGame()
gameDTO -right-> game :new()
gameDTO .left.> gameDAO

'models
sessionDTO -right-> session :load(game)
sessionDTO ..> game

@enduml

@startuml colaboration-open







<style>
  root {
    BackgroundColor white
    FontColor black
    FontName Verdana
    HyperLinkColor blue
    LineColor black
    LineThickness 1
    Margin 5
  }
  caption {
    LineThickness 0
  }
  footer {
    LineThickness 0
  }
  header {
    LineThickness 0
  }
  node {
    MaximumWidth 300
  }
  title {
    FontSize 22
    LineThickness 0
  }
</style>

skinparam ArrowLollipopColor black
skinparam BackgroundColor white
skinparam DefaultFontName Verdana
skinparam DefaultMonospacedFontName Courier
skinparam LifelineStrategy nosolid
skinparam ParticipantPadding 10
skinparam SequenceLifeLineBorderColor black
skinparam Shadowing false
skinparam UseBetaStyle true

skinparam Activity {
  BackgroundColor white
  BarColor black
  BorderColor black
  FontColor black
  FontName Verdana
}
skinparam Boundary {
  FontColor black
}
skinparam Box {
  Padding 5
}
skinparam CircledCharacter {
  FontColor black
  FontName Courier
  Radius 9
}
skinparam Class {
  BackgroundColor white
  BorderColor black
  FontColor black
  FontName Verdana
}
skinparam ClassAttribute {
  FontColor black
  FontName Verdana
}
skinparam ClassStereotype {
  FontColor black
  FontName Verdana
}
skinparam Footer {
  FontColor black
  FontName Verdana
}
skinparam Header {
  FontColor black
  FontName Verdana
}
skinparam Hyperlink {
  Color blue
}
skinparam IconPackage {
  Color black
  BackgroundColor white
}
skinparam IconPrivate {
  Color black
  BackgroundColor white
}
skinparam IconProtected {
  Color black
  BackgroundColor white
}
skinparam IconPublic {
  Color black
  BackgroundColor white
}
skinparam Note {
  FontColor black
  FontName Verdana
}
skinparam Object {
  BorderColor black
}
skinparam Package {
  BorderColor black
  FontColor black
  FontName Verdana
}
skinparam State {
  BackgroundColor white
  BorderColor black
}
skinparam StereotypeA {
  BackgroundColor white
  BorderColor black
}
skinparam StereotypeC {
  BackgroundColor white
  BorderColor black
}
skinparam StereotypeE {
  BackgroundColor white
  BorderColor black
}
skinparam StereotypeI {
  BackgroundColor white
  BorderColor black
}
skinparam StereotypeN {
  BackgroundColor white
  BorderColor black
}
skinparam UseCaseStereoType {
  FontColor black
  FontName Verdana
}

actor player

package angular {
    agent startViewHTML
    agent startViewComponent
    agent startService
    agent httpClient
}

package controllers <<master-mind-core dependency>> {
    agent startController
}

package spring-rest-views {
    agent restStartView <<@RestCotroller>>
}

package spring-dao {
    agent sessionImpDAO
    agent gameDAO <<Repository>>
    agent gameDTO
}

package models <<master-mind-core dependency>>{
    agent session
    agent sessionDTO
    agent game
}

player -right-> startViewHTML :open()
startViewHTML -right-> startViewComponent :open(gameName)
startViewComponent - -> startService :open(gameName)\ngetNames()
startService -right-> httpClient :get(gameName)

httpClient -up-> restStartView :get(gameName)
restStartView - -> startController :get(gameName)

startController - -> session :next()
startController - -> sessionImpDAO :load(gameSelectedTitle)\nassociate(this.session)

sessionImpDAO - -> gameDAO :find(gameName)\ngetPropCombs(gameName)
sessionImpDAO - -> sessionDTO :load(game)
sessionImpDAO - -> gameDTO :getLoadedGame()
gameDTO -right-> game :new()
gameDTO .left.> gameDAO

sessionDTO -right-> session :load(game)
sessionDTO ..> game

@enduml

PlantUML version 1.2022.7(Mon Aug 22 12:01:30 CDT 2022)
(GPL source distribution)
Java Runtime: OpenJDK Runtime Environment
JVM: OpenJDK 64-Bit Server VM
Default Encoding: UTF-8
Language: en
Country: US
--></g></svg>